<svg fill="" xmlns="http://www.w3.org/2000/svg" xmlns:xlink="http://www.w3.org/1999/xlink"><defs><symbol viewBox="0 0 184 136" id="Group"><desc>Created with Pixso.</desc><defs></defs><rect id="Group_Frame 6509" width="184.000000" height="136.000000" fill-opacity="1.000000" /><path id="Group_Vector" d="M177.39 32.63C184.97 25.49 185.34 13.54 178.22 5.94C171.09 -1.66 159.16 -2.02 151.58 5.12L68.07 82.9L32.42 45.78C25.2 38.27 13.27 38.04 5.77 45.27C-1.72 52.5 -1.96 64.46 5.26 71.97L66.74 136L177.39 32.64L177.39 32.63Z" fill-opacity="1.000000" fill-rule="nonzero" /></symbol><symbol viewBox="0 0 100 17" id="Ratings"><g clip-path="url(#Ratings_clip0_11_453)"><path fill-rule="evenodd" clip-rule="evenodd" d="M7.99544 1.00427C8.12232 1.00427 8.2382 1.07631 8.29435 1.19009L10.2741 5.20153L14.7006 5.84305C14.8262 5.86126 14.9306 5.94925 14.9698 6.06999C15.009 6.19072 14.9762 6.32325 14.8853 6.4118L11.6776 9.53412L12.434 13.9432C12.4554 14.0684 12.404 14.1948 12.3012 14.2694C12.1985 14.3439 12.0623 14.3537 11.95 14.2945L7.99993 12.213L4.04056 14.2946C3.92825 14.3537 3.79216 14.3439 3.68951 14.2693C3.58686 14.1947 3.53545 14.0683 3.5569 13.9432L4.31325 9.53412L1.1056 6.4118C1.01463 6.32325 0.98186 6.19072 1.02107 6.06999C1.06028 5.94925 1.16466 5.86126 1.29029 5.84305L5.71678 5.20153L7.69652 1.19009C7.75268 1.07631 7.86856 1.00427 7.99544 1.00427Z" stroke-linecap="round" stroke-linejoin="round" /></g><g clip-path="url(#Ratings_clip1_11_453)"><path fill-rule="evenodd" clip-rule="evenodd" d="M28.9954 1.00427C29.1223 1.00427 29.2382 1.07631 29.2943 1.19009L31.2741 5.20153L35.7006 5.84305C35.8262 5.86126 35.9306 5.94925 35.9698 6.06999C36.009 6.19072 35.9762 6.32325 35.8853 6.4118L32.6776 9.53412L33.434 13.9432C33.4554 14.0684 33.404 14.1948 33.3012 14.2694C33.1985 14.3439 33.0623 14.3537 32.95 14.2945L28.9999 12.213L25.0406 14.2946C24.9283 14.3537 24.7922 14.3439 24.6895 14.2693C24.5869 14.1947 24.5355 14.0683 24.5569 13.9432L25.3132 9.53412L22.1056 6.4118C22.0146 6.32325 21.9819 6.19072 22.0211 6.06999C22.0603 5.94925 22.1647 5.86126 22.2903 5.84305L26.7168 5.20153L28.6965 1.19009C28.7527 1.07631 28.8686 1.00427 28.9954 1.00427Z" stroke-linecap="round" stroke-linejoin="round" /></g><g clip-path="url(#Ratings_clip2_11_453)"><path fill-rule="evenodd" clip-rule="evenodd" d="M49.9954 1.00427C50.1223 1.00427 50.2382 1.07631 50.2943 1.19009L52.2741 5.20153L56.7006 5.84305C56.8262 5.86126 56.9306 5.94925 56.9698 6.06999C57.009 6.19072 56.9762 6.32325 56.8853 6.4118L53.6776 9.53412L54.434 13.9432C54.4554 14.0684 54.404 14.1948 54.3012 14.2694C54.1985 14.3439 54.0623 14.3537 53.95 14.2945L49.9999 12.213L46.0406 14.2946C45.9283 14.3537 45.7922 14.3439 45.6895 14.2693C45.5869 14.1947 45.5355 14.0683 45.5569 13.9432L46.3132 9.53412L43.1056 6.4118C43.0146 6.32325 42.9819 6.19072 43.0211 6.06999C43.0603 5.94925 43.1647 5.86126 43.2903 5.84305L47.7168 5.20153L49.6965 1.19009C49.7527 1.07631 49.8686 1.00427 49.9954 1.00427Z" stroke-linecap="round" stroke-linejoin="round" /></g><g clip-path="url(#Ratings_clip3_11_453)"><path fill-rule="evenodd" clip-rule="evenodd" d="M70.9954 1.00427C71.1223 1.00427 71.2382 1.07631 71.2943 1.19009L73.2741 5.20153L77.7006 5.84305C77.8262 5.86126 77.9306 5.94925 77.9698 6.06999C78.009 6.19072 77.9762 6.32325 77.8853 6.4118L74.6776 9.53412L75.434 13.9432C75.4554 14.0684 75.404 14.1948 75.3012 14.2694C75.1985 14.3439 75.0623 14.3537 74.95 14.2945L70.9999 12.213L67.0406 14.2946C66.9283 14.3537 66.7922 14.3439 66.6895 14.2693C66.5869 14.1947 66.5355 14.0683 66.5569 13.9432L67.3132 9.53412L64.1056 6.4118C64.0146 6.32325 63.9819 6.19072 64.0211 6.06999C64.0603 5.94925 64.1647 5.86126 64.2903 5.84305L68.7168 5.20153L70.6965 1.19009C70.7527 1.07631 70.8686 1.00427 70.9954 1.00427Z" stroke-linecap="round" stroke-linejoin="round" /></g><g clip-path="url(#Ratings_clip4_11_453)"><path d="M92 11.8363L87.8853 13.9996L88.6713 9.41765L85.338 6.17298L89.938 5.50631L91.9953 1.33765L94.0527 5.50631L98.6527 6.17298L95.3193 9.41765L96.1053 13.9996L92 11.8363Z" stroke-width="1.5" stroke-linecap="round" stroke-linejoin="round" /></g><defs></defs></symbol><clipPath id="Ratings_clip0_11_453"><rect width="16" height="16" transform="translate(0 0.00292969)" /></clipPath><clipPath id="Ratings_clip1_11_453"><rect width="16" height="16" transform="translate(21 0.00292969)" /></clipPath><clipPath id="Ratings_clip2_11_453"><rect width="16" height="16" transform="translate(42 0.00292969)" /></clipPath><clipPath id="Ratings_clip3_11_453"><rect width="16" height="16" transform="translate(63 0.00292969)" /></clipPath><clipPath id="Ratings_clip4_11_453"><rect width="16" height="16" transform="translate(84 0.00292969)" /></clipPath><symbol viewBox="0 0 183.33 136" id="Vector"><desc>Created with Pixso.</desc><defs></defs><path id="Vector_Vector" d="M177.39 32.63C184.97 25.49 185.34 13.54 178.22 5.94C171.09 -1.66 159.16 -2.02 151.58 5.12L68.07 82.9L32.42 45.78C25.2 38.27 13.27 38.04 5.77 45.27C-1.72 52.5 -1.96 64.46 5.26 71.97L66.74 136L177.39 32.64L177.39 32.63Z" fill-opacity="1.000000" fill-rule="nonzero" /></symbol><symbol viewBox="0 0 13.9043 7.6543" id="arrow-accordion"><desc>Created with Pixso.</desc><defs></defs><path id="arrow-accordion_Vector" d="M1.77 0.12L6.61 4.47C6.8 4.64 7.09 4.64 7.28 4.47L12.12 0.12C12.31 -0.05 12.6 -0.05 12.79 0.12L13.73 0.97C13.96 1.17 13.96 1.52 13.73 1.72L7.28 7.52C7.09 7.69 6.8 7.69 6.61 7.52L0.16 1.72C-0.06 1.52 -0.06 1.17 0.16 0.97L1.11 0.12C1.29 -0.05 1.58 -0.05 1.77 0.12Z" fill-opacity="1.000000" fill-rule="evenodd" /></symbol><symbol viewBox="0 0 15 8" id="arrow-down"><path d="M1.95795 0.300542C2.14792 0.129621 2.43621 0.129465 2.62638 0.30018L7.46599 4.64482C7.656 4.81539 7.944 4.81539 8.13401 4.64482L12.9736 0.30018C13.1638 0.129465 13.4521 0.129622 13.6421 0.300543L14.5868 1.15056C14.8076 1.34919 14.8076 1.69534 14.5868 1.89397L8.13442 7.69913C7.94428 7.87019 7.65571 7.87019 7.46558 7.69913L1.01315 1.89397C0.792374 1.69534 0.792374 1.34919 1.01315 1.15056L1.95795 0.300542Z" /></symbol><symbol viewBox="0 0 24 24" id="arrow-left"><path d="M7.828 11H20V13H7.828L13.192 18.364L11.778 19.778L4 12L11.778 4.22198L13.192 5.63598L7.828 11Z" /></symbol><symbol viewBox="0 0 8 14" id="arrow-right"><path d="M1 1.00146L7 7.00146L1 13.0015" stroke-width="1.5" stroke-linecap="round" stroke-linejoin="round" /></symbol><symbol viewBox="0 0 12 12" id="arrow-right-top"><path d="M11 1L1 11M11 1H2M11 1V10" stroke-width="1.5" stroke-linecap="round" stroke-linejoin="round" /></symbol><symbol viewBox="0 0 182 159" id="ask"><g clip-path="url(#ask_clip0_2689_27656)"><path d="M211.403 30.8902C218.551 24.1277 218.897 12.8172 212.183 5.62772C205.46 -1.56176 194.215 -1.90932 187.067 4.85317L77.1909 108.753L43.5736 73.6199C36.7711 66.5099 25.516 66.2915 18.447 73.1334C11.378 79.9753 11.1608 91.2957 17.9632 98.4058L75.937 159L211.403 30.9001V30.8902Z" /></g><defs></defs></symbol><clipPath id="ask_clip0_2689_27656"><rect width="182" height="159" /></clipPath><symbol viewBox="0 0 18.8711 10.4839" id="btn-up"><desc>Created with Pixso.</desc><defs></defs><path id="btn-up_Vector" d="M2.55 10.18L9.1 4.3C9.29 4.13 9.58 4.13 9.76 4.3L16.31 10.18C16.5 10.35 16.79 10.35 16.98 10.18L18.45 8.86C18.67 8.66 18.67 8.31 18.45 8.11L9.77 0.3C9.58 0.12 9.29 0.12 9.1 0.3L0.41 8.11C0.19 8.31 0.19 8.66 0.41 8.86L1.88 10.18C2.07 10.35 2.36 10.35 2.55 10.18Z" fill-opacity="1.000000" fill-rule="nonzero" /></symbol><symbol viewBox="0 0 23 17" id="burger"><line x1="1.5" y1="1.5" x2="21.5" y2="1.5" stroke-width="3" stroke-linecap="round" stroke-linejoin="round" /><line x1="1.5" y1="8.5" x2="21.5" y2="8.5" stroke-width="3" stroke-linecap="round" stroke-linejoin="round" /><line x1="1.5" y1="15.5" x2="21.5" y2="15.5" stroke-width="3" stroke-linecap="round" stroke-linejoin="round" /></symbol><symbol viewBox="0 0 64 64" id="callback"><path d="M32 2C48.575 2 62 15.3321 62 31.7924C62 36.8385 60.725 41.6053 58.4937 45.7762L61.1168 55.7275L50.5437 55.1794C45.4437 59.1828 38.9937 61.5848 32 61.5848C15.425 61.5848 2 48.2527 2 31.7924C2 15.3321 15.425 2 32 2Z" stroke-width="3" stroke-linecap="round" stroke-linejoin="round" /><circle cx="32" cy="32" r="3" /><circle cx="43" cy="32" r="3" /><circle cx="21" cy="32" r="3" /></symbol><symbol viewBox="0 0 60 61" id="cap"><path fill-rule="evenodd" clip-rule="evenodd" d="M35 52.5015L37.7864 50.0015H60V51.2515C54.9077 52.0897 49.755 52.5077 44.5942 52.5015H35ZM10.0135 7.50146L12.4404 30.0015L14.9066 29.5564L12.7978 10.0015H47.2025L44.5395 34.69C44.4828 35.2223 44.3778 35.7447 44.2274 36.2515L46.3934 37.6478C46.7112 36.7869 46.9249 35.8841 47.0247 34.958L47.29 32.5015H48.292C50.7592 32.5015 53.1393 31.5895 54.9748 29.9407C56.81 28.292 57.9712 26.023 58.2347 23.57L58.681 19.42C58.7748 18.5478 58.684 17.6657 58.4145 16.831C58.145 15.9963 57.7027 15.2276 57.1165 14.575C56.5305 13.9225 55.8135 13.4006 55.0125 13.0433C54.2112 12.6861 53.344 12.5014 52.4668 12.5015H49.4473L49.9865 7.50146H10.0135ZM49.1775 15.0015H52.4668C52.993 15.0015 53.5132 15.1122 53.9938 15.3265C54.4745 15.5408 54.9045 15.8538 55.2563 16.2453C55.6078 16.6367 55.8732 17.0977 56.035 17.5984C56.1968 18.0991 56.2515 18.6283 56.1953 19.1515L55.75 23.303C55.555 25.144 54.6847 26.8475 53.3075 28.0845C51.9302 29.3217 50.1432 30.0045 48.292 30.0015H47.5595L49.1775 15.0015Z" /><path d="M34.1552 48.4664L33.0706 49.5511C31.5299 48.0716 29.7284 46.8879 27.7558 46.0608C25.6281 45.1686 23.3439 44.7091 21.0367 44.7091C18.7296 44.7091 16.4454 45.1686 14.3177 46.0608C12.3451 46.8879 10.5436 48.0716 9.00281 49.5511L7.91822 48.4665C9.60732 46.8534 11.5806 45.5646 13.7396 44.6662C16.0521 43.7041 18.5322 43.2086 21.0367 43.2086C23.5415 43.2086 26.0213 43.7041 28.3339 44.6663C30.4928 45.5646 32.4661 46.8533 34.1552 48.4664ZM24.4216 54.1002C25.3412 54.4871 26.1866 55.0284 26.9216 55.6994L25.8761 56.7451C25.2773 56.2176 24.5954 55.7907 23.8568 55.4824C22.9633 55.1095 22.0048 54.9176 21.0365 54.9176C20.0684 54.9176 19.1097 55.1094 18.2161 55.4824C17.4775 55.7907 16.7957 56.2176 16.1968 56.7451L15.1508 55.699C15.8858 55.0282 16.7309 54.4871 17.6504 54.1002C18.7222 53.6493 19.8733 53.4171 21.036 53.4171C22.1989 53.4171 23.3497 53.6493 24.4216 54.1002ZM40.2881 42.3362C37.7996 39.9083 34.8729 37.9721 31.6622 36.631L31.6622 36.631C28.2966 35.2255 24.6854 34.5016 21.038 34.5016C17.3906 34.5016 13.7795 35.2255 10.4139 36.631L10.4138 36.631C7.20295 37.9721 4.27644 39.9083 1.7879 42.3362L0.710058 41.2583C3.34452 38.6952 6.44108 36.6526 9.83726 35.2392C13.3868 33.762 17.1934 33.0015 21.0382 33.0015C24.8828 33.0015 28.6895 33.762 32.2389 35.2392L32.431 34.7776L32.2389 35.2392C35.6351 36.6525 38.7316 38.6952 41.366 41.2582L40.2881 42.3362Z" /></symbol><symbol viewBox="0 0 57 55" id="car"><path d="M53.648 10.4863L56.7052 8.29059C56.4995 7.31347 56.1473 6.37309 55.6602 5.50134C55.149 4.64354 54.511 3.86809 53.7675 3.20134L50.3375 4.75134L50.3105 4.73609L49.9383 0.99084C48.0343 0.33834 45.9673 0.33834 44.0633 0.99084L43.6895 4.73634L43.6625 4.75134L40.2325 3.20134C39.4893 3.86819 38.851 4.64362 38.3398 5.50134C37.8528 6.37299 37.5005 7.31329 37.2948 8.29034L40.352 10.4861V10.5163L37.2948 12.7121C37.5005 13.6892 37.8528 14.6296 38.3398 15.5013C38.851 16.3591 39.4893 17.1345 40.2325 17.8013L43.6625 16.2513L43.6895 16.2663L44.0617 20.0118C45.9657 20.6643 48.0328 20.6643 49.9368 20.0118L50.3098 16.2666L50.3375 16.2513L53.7675 17.8013C54.5108 17.1344 55.1488 16.359 55.6602 15.5013C56.1473 14.6298 56.4995 13.6895 56.7052 12.7126L53.648 10.5163V10.4863ZM54.541 13.4663C54.2725 14.2291 53.8645 14.9354 53.338 15.5493L51.109 14.5426L50.209 14.1623L49.377 14.6408L48.5415 15.1213L48.4463 16.0803L48.2035 18.5143C47.4087 18.6634 46.5933 18.6634 45.7985 18.5143L45.5558 16.0803L45.4342 15.1053L44.5978 14.6263L43.7658 14.1478L42.8908 14.5431L40.6618 15.5501C40.1353 14.9362 39.7273 14.2298 39.4588 13.4668L41.4455 12.0398L42.2268 11.4486V9.52434L41.4455 8.96309L39.4588 7.53634C39.7273 6.77342 40.1353 6.06702 40.6618 5.45309L42.8908 6.46009L43.7968 6.84234L44.631 6.35759L45.46 5.87634L45.5548 4.92259L45.7975 2.48859C46.5923 2.33992 47.4078 2.33992 48.2025 2.48859L48.4453 4.92259L48.5675 5.89959L49.406 6.37959L50.2373 6.85459L51.109 6.46059L53.338 5.45384C53.8648 6.06762 54.2725 6.77394 54.541 7.53684L52.5543 8.96384L51.773 9.55509V11.4786L52.5543 12.0398L54.541 13.4663ZM47 8.62634C46.6292 8.62634 46.2668 8.73632 45.9583 8.94234C45.65 9.14837 45.4098 9.44119 45.2678 9.78382C45.1258 10.1264 45.0888 10.5034 45.161 10.8671C45.2335 11.2308 45.412 11.5649 45.6742 11.8272C45.9365 12.0894 46.2705 12.268 46.6343 12.3403C46.998 12.4127 47.375 12.3755 47.7175 12.2336C48.0603 12.0917 48.353 11.8514 48.559 11.543C48.765 11.2347 48.875 10.8722 48.875 10.5013C48.875 10.0041 48.6775 9.52714 48.3258 9.17552C47.9743 8.82389 47.4972 8.62634 47 8.62634ZM12.9028 37.6707C12.2396 37.671 11.5914 37.8675 11.04 38.236C10.4887 38.6045 10.0589 39.1282 9.8052 39.741C9.55145 40.3535 9.48508 41.0277 9.61448 41.6782C9.7439 42.3285 10.0633 42.926 10.5322 43.395C11.0011 43.8637 11.5986 44.183 12.249 44.3125C12.8994 44.4417 13.5736 44.3755 14.1862 44.1215C14.7989 43.8677 15.3226 43.438 15.691 42.8867C16.0594 42.3352 16.256 41.687 16.256 41.0237C16.2561 40.5835 16.1694 40.1475 16.0009 39.7407C15.8323 39.3337 15.5853 38.9642 15.274 38.6527C14.9626 38.3415 14.5929 38.0945 14.186 37.926C13.7792 37.7575 13.3431 37.6707 12.9028 37.6707ZM12.9028 42.3767C12.6352 42.3767 12.3736 42.2975 12.1511 42.1487C11.9286 42.0002 11.7552 41.7887 11.6528 41.5417C11.5504 41.2945 11.5236 41.0222 11.5758 40.76C11.628 40.4975 11.7569 40.2562 11.9461 40.0672C12.1353 39.878 12.3764 39.749 12.6388 39.6967C12.9013 39.6447 13.1733 39.6715 13.4206 39.7737C13.6678 39.8762 13.8791 40.0497 14.0278 40.2722C14.1764 40.4947 14.2558 40.7562 14.2558 41.0237C14.2552 41.3825 14.1124 41.7262 13.8588 41.9797C13.6052 42.2332 13.2614 42.376 12.9028 42.3762V42.3767ZM34.1833 37.6707C33.52 37.6707 32.8717 37.8675 32.3205 38.2357C31.769 38.6042 31.3393 39.128 31.0853 39.7405C30.8315 40.3532 30.765 41.0275 30.8945 41.6777C31.0238 42.3282 31.343 42.9257 31.812 43.3947C32.281 43.8637 32.8783 44.183 33.5288 44.3125C34.1793 44.4417 34.8535 44.3755 35.466 44.1217C36.0788 43.868 36.6025 43.4382 36.971 42.8867C37.3393 42.3352 37.536 41.687 37.536 41.0237C37.536 40.1347 37.1828 39.282 36.554 38.653C35.9253 38.0242 35.0725 37.671 34.1833 37.6707ZM34.1833 42.3767C33.9158 42.3767 33.6543 42.2975 33.4318 42.1487C33.2093 42 33.0358 41.7887 32.9335 41.5415C32.831 41.2942 32.8043 41.0222 32.8565 40.7597C32.9088 40.4972 33.0378 40.2562 33.227 40.067C33.4163 39.8777 33.6573 39.749 33.9198 39.6967C34.182 39.6447 34.4543 39.6715 34.7013 39.774C34.9485 39.8762 35.1598 40.0497 35.3085 40.2722C35.4573 40.4947 35.5365 40.7562 35.5365 41.0237C35.536 41.3825 35.3933 41.7262 35.1395 41.98C34.8858 42.2335 34.542 42.376 34.1833 42.3762V42.3767ZM39.6715 24.0862C39.416 23.1337 38.8748 22.2822 38.1205 21.6465C37.3663 21.0109 36.4355 20.6217 35.4533 20.5313C35.3063 20.5116 34.9768 20.5013 34.825 20.5013H12.263C12.1283 20.5013 11.813 20.5093 11.682 20.5251C10.6904 20.6063 9.74813 20.9921 8.98428 21.6296C8.2204 22.2671 7.6723 23.1252 7.41503 24.0862C7.09778 25.2612 6.83653 26.4485 6.57653 27.6362H0.571777V33.2247L5.35953 34.8872C5.02853 37.579 4.84225 40.2862 4.80153 42.9977C4.79553 43.3185 4.79303 44.1277 4.79303 44.4477V52.8347C4.79303 53.0515 4.8357 53.266 4.91863 53.4662C5.00155 53.6665 5.12308 53.8485 5.2763 54.0015C5.42953 54.1547 5.61143 54.2762 5.8116 54.3592C6.01178 54.4422 6.22635 54.4847 6.44303 54.4847H10.2203C10.437 54.4847 10.6515 54.4422 10.8517 54.3592C11.0519 54.2762 11.2338 54.1547 11.387 54.0015C11.5402 53.8485 11.6618 53.6665 11.7447 53.4662C11.8276 53.266 11.8703 53.0515 11.8703 52.8347V50.5012H35.2163V52.8355C35.2163 53.2732 35.39 53.693 35.6995 54.0022C36.009 54.3117 36.4288 54.4855 36.8663 54.4855H40.6438C41.0815 54.4855 41.501 54.3117 41.8105 54.0022C42.12 53.693 42.2938 53.2732 42.2938 52.8355V44.448C42.2938 44.132 42.2912 43.328 42.2858 43.012C42.2455 40.2957 42.059 37.5835 41.7272 34.887L46.515 33.2247V27.636H40.5095C40.25 26.4485 39.9883 25.2612 39.6715 24.0862ZM5.65603 32.608L2.82153 31.624V29.886H6.11978C5.95003 30.791 5.79203 31.6975 5.65603 32.608ZM9.82828 24.737C9.95193 24.2737 10.2158 23.8597 10.5838 23.552C10.9518 23.2442 11.406 23.058 11.884 23.0182L12.2638 23.0013H34.825C34.9043 23.0013 35.0643 23.0037 35.163 23.0135C35.6463 23.0502 36.1065 23.2347 36.4813 23.5425C36.8558 23.85 37.1265 24.2655 37.2565 24.7322C37.9818 27.4487 38.5505 30.2047 38.9595 32.9862H8.12678C8.53575 30.2062 9.10385 27.452 9.82828 24.737ZM37.548 52.1532L37.536 48.0012H9.55003L9.53778 52.1532H7.29303C7.29303 52.1532 7.29678 43.3075 7.30153 43.0427C7.3407 40.461 7.51595 37.883 7.82653 35.3195H39.259C39.5698 37.8812 39.745 40.4577 39.784 43.0377L39.7913 52.1532H37.548ZM44.2645 29.886V31.624L41.43 32.6082C41.2937 31.6977 41.1357 30.791 40.966 29.886H44.2645Z" /></symbol><symbol viewBox="0 0 80 80" id="cashback"><path d="M9.54042 17.1866H14.8393C15.5788 17.1866 16.1796 16.5883 16.1796 15.8463C16.1796 15.1068 15.5788 14.5061 14.8393 14.5061H12.4364C19.2694 7.12499 29.0342 2.49147 39.8641 2.49147C55.0978 2.49147 68.2301 11.6508 74.0459 24.7448C74.3642 25.4604 75.245 25.7189 75.8912 25.2761C76.389 24.9363 76.5685 24.2877 76.3244 23.7372C70.1184 9.76725 56.1125 0 39.8641 0C28.455 0 18.1517 4.81781 10.8783 12.5268V10.0353C10.8783 9.29576 10.2776 8.69503 9.53803 8.69503C8.79848 8.69503 8.19775 9.29336 8.19775 10.0353V15.8463C8.19775 16.5859 8.79848 17.1866 9.53803 17.1866H9.54042Z" /><path d="M78.2893 28.5719C78.3611 28.682 78.4161 28.8016 78.4544 28.9333C79.3807 32.1475 79.9 35.4767 80.0005 38.8321C80.0221 39.5717 79.4405 40.1892 78.701 40.2107C77.9614 40.2322 77.3415 39.6531 77.3224 38.9111C77.2291 35.7806 76.7432 32.6717 75.8792 29.6752C75.6734 28.9644 76.085 28.2224 76.7959 28.0166C77.375 27.8491 77.9758 28.0932 78.2893 28.5719Z" /><path d="M79.6368 42.8792C79.7948 43.1234 79.8761 43.4201 79.8474 43.7337C79.5817 46.632 79.0002 49.5112 78.1218 52.2875C77.8992 52.9935 77.1453 53.3836 76.4393 53.1587C75.7356 52.9337 75.3431 52.1822 75.5681 51.4761C76.3914 48.8818 76.9323 46.194 77.1812 43.4872C77.2482 42.75 77.8992 42.2091 78.6364 42.2761C79.0624 42.3144 79.4214 42.549 79.6368 42.8792Z" /><path d="M57.495 58.13C67.036 48.589 67.036 33.12 57.495 23.579C47.954 14.038 32.485 14.038 22.944 23.579C13.403 33.12 13.403 48.589 22.944 58.13C32.485 67.671 47.954 67.671 57.495 58.13Z" /><path d="M70.4607 62.6865H65.1618C64.4223 62.6865 63.8216 63.2848 63.8216 64.0268C63.8216 64.7687 64.4223 65.367 65.1618 65.367H67.5648C60.7294 72.7505 50.9645 77.3816 40.137 77.3816C24.9034 77.3816 11.7711 68.2223 5.95524 55.1283C5.63693 54.4127 4.75618 54.1542 4.10997 54.597C3.61216 54.9368 3.43266 55.5854 3.67678 56.1359C9.88273 70.1083 23.891 79.8755 40.137 79.8755C51.5461 79.8755 61.8495 75.0577 69.1228 67.3487V69.8402C69.1228 70.5797 69.7236 71.1805 70.4631 71.1805C71.2027 71.1805 71.8034 70.5821 71.8034 69.8402V64.0292C71.8034 63.2896 71.2027 62.6889 70.4631 62.6889L70.4607 62.6865Z" /><path d="M1.71182 51.3011C1.64002 51.191 1.58497 51.0713 1.54668 50.9397C0.620456 47.7278 0.1011 44.3987 0.000579528 41.0432C-0.0209606 40.3037 0.560623 39.6862 1.30017 39.6646C2.03971 39.6431 2.65959 40.2223 2.67873 40.9642C2.77207 44.0947 3.25792 47.2037 4.12192 50.2002C4.32775 50.911 3.91609 51.6529 3.20527 51.8587C2.62608 52.0263 2.02535 51.7822 1.71182 51.3035V51.3011Z" /><path d="M0.36194 36.9935C0.203979 36.7494 0.122606 36.4526 0.151326 36.1391C0.416987 33.2407 0.99857 30.3615 1.87693 27.5852C2.09951 26.8792 2.85341 26.4891 3.55945 26.7141C4.26309 26.939 4.6556 27.6906 4.43063 28.3966C3.60732 30.991 3.06642 33.6787 2.81751 36.3856C2.7505 37.1227 2.09951 37.6636 1.36236 37.5966C0.936343 37.5583 0.577341 37.3238 0.36194 36.9935Z" /><path d="M37.4253 37.2473C37.4253 32.6808 35.1827 29.8447 31.5735 29.8447C27.9644 29.8447 25.7529 32.6808 25.7529 37.2473C25.7529 41.8139 27.9835 44.7385 31.5735 44.7385C35.1636 44.7385 37.4253 41.8689 37.4253 37.2473ZM33.9454 37.2473C33.9454 40.0547 33.0598 41.7301 31.5735 41.7301C30.0873 41.7301 29.2329 40.0547 29.2329 37.2473C29.2329 34.44 30.0849 32.8244 31.5735 32.8244C33.7132 32.8244 33.9454 35.9166 33.9454 37.2473Z" /><path d="M47.4295 38.5684C43.8203 38.5684 41.5778 41.4045 41.5778 45.971C41.5778 50.5375 43.8203 53.431 47.4295 53.431C51.0387 53.431 53.2501 50.5734 53.2501 45.971C53.2501 41.3686 51.0195 38.5684 47.4295 38.5684ZM49.7702 45.971C49.7702 48.776 48.8942 50.4537 47.4295 50.4537C45.9648 50.4537 45.0577 48.7784 45.0577 45.971C45.0577 44.6403 45.2874 41.5481 47.4295 41.5481C48.9182 41.5481 49.7702 43.1588 49.7702 45.971Z" /><path d="M47.293 30.1774C47.1733 29.9716 46.9532 29.8447 46.7138 29.8447H44.7896C44.5478 29.8447 44.3253 29.9764 44.2056 30.187L31.6692 52.4331C31.552 52.639 31.5544 52.8927 31.674 53.0985C31.7937 53.3043 32.0139 53.4312 32.2532 53.4312H34.1464C34.3881 53.4312 34.6107 53.3019 34.7303 53.0913L47.2978 30.8451C47.4151 30.6369 47.4127 30.3832 47.293 30.1774Z" /></symbol><symbol viewBox="0 0 17 12" id="check"><path d="M1 6.00146L6 11.0015L16 1.00146" stroke-width="1.5" stroke-linecap="round" stroke-linejoin="round" /></symbol><symbol viewBox="0 0 21 20" id="clear"><path d="M10.3846 18.3334C5.7821 18.3334 2.05127 14.6025 2.05127 10C2.05127 5.39752 5.7821 1.66669 10.3846 1.66669C14.9871 1.66669 18.7179 5.39752 18.7179 10C18.7179 14.6025 14.9871 18.3334 10.3846 18.3334ZM10.3846 8.82169L8.02794 6.46419L6.84877 7.64335L9.20627 10L6.84877 12.3567L8.02794 13.5359L10.3846 11.1784L12.7413 13.5359L13.9204 12.3567L11.5629 10L13.9204 7.64335L12.7413 6.46419L10.3846 8.82169Z" /></symbol><symbol viewBox="0 0 16 16" id="close"><path d="M2 2L14 14" stroke-width="3" stroke-linecap="round" stroke-linejoin="round" /><path d="M14 2L2 14" stroke-width="3" stroke-linecap="round" stroke-linejoin="round" /></symbol><symbol viewBox="0 0 24 24" id="close-line"><path d="M12 10.586l4.95-4.95 1.414 1.414-4.95 4.95 4.95 4.95-1.414 1.414-4.95-4.95-4.95 4.95-1.414-1.414 4.95-4.95-4.95-4.95L7.05 5.636z" /></symbol><symbol viewBox="0 0 49 50" id="done"><g clip-path="url(#done_clip0_2949_2527)"><path d="M47.492 4.36799H40.13V0.69025C40.13 0.31277 39.8174 0 39.4401 0H32.3907C32.0134 0 31.7008 0.31277 31.7008 0.69025V4.36799H16.9768V0.69025C16.9768 0.31277 16.6642 0 16.287 0H9.22676C8.8495 0 8.53691 0.31277 8.53691 0.69025V4.36799H0.689852C0.312589 4.36799 0 4.68076 0 5.05824V49.3098C0 49.6872 0.312589 50 0.689852 50H47.492C47.8692 50 48.1818 49.6872 48.1818 49.3098V5.05824C48.1818 4.68076 47.8692 4.36799 47.492 4.36799ZM33.0805 1.3805H38.7503V10.893H33.0805V1.3805ZM9.90584 1.3805H15.5971V10.893H9.90584V1.3805ZM1.3797 5.74849H8.52613V11.594C8.52613 11.9715 8.83872 12.2843 9.21599 12.2843H16.2762C16.6534 12.2843 16.966 11.9715 16.966 11.594V5.74849H31.7008V11.594C31.7008 11.9715 32.0134 12.2843 32.3907 12.2843H39.4401C39.8174 12.2843 40.13 11.9715 40.13 11.594V5.74849H46.8021V17.4396H1.3797V5.74849ZM1.3797 48.6195V18.8201H46.8021V48.6195H1.3797Z" /><path d="M22.7305 37.7812L18.1914 33.2422C17.918 32.9688 17.918 32.5039 18.1914 32.2305L19.1758 31.2461C19.4492 30.9727 19.8867 30.9727 20.1602 31.2461L23.25 34.3086L29.8125 27.7461C30.0859 27.4727 30.5234 27.4727 30.7969 27.7461L31.7812 28.7305C32.0547 29.0039 32.0547 29.4688 31.7812 29.7422L23.7422 37.7812C23.4688 38.0547 23.0039 38.0547 22.7305 37.7812Z" /></g><defs></defs></symbol><clipPath id="done_clip0_2949_2527"><rect width="48.1818" height="50" /></clipPath><symbol viewBox="0 0 20 20" id="down"><g clip-path="url(#down_clip0_2284_160)"><path d="M10 4.16675V15.8334M10 15.8334L15 10.8334M10 15.8334L5 10.8334" stroke-width="1.5" stroke-linecap="round" stroke-linejoin="round" /></g><defs></defs></symbol><clipPath id="down_clip0_2284_160"><rect width="20" height="20" rx="10" /></clipPath><symbol viewBox="0 0 22 18.8237" id="educ"><desc>Created with Pixso.</desc><defs></defs><path id="educ_Icon" d="M1 5.94L10.64 10.76C10.77 10.82 10.83 10.86 10.9 10.87C10.96 10.88 11.03 10.88 11.09 10.87C11.16 10.86 11.22 10.82 11.35 10.76L21 5.94L11.35 1.12C11.22 1.05 11.16 1.02 11.09 1C11.03 0.99 10.96 0.99 10.9 1C10.83 1.02 10.77 1.05 10.64 1.12L1 5.94ZM4 7.44L4 13.45C4 13.81 4 13.99 4.05 14.14C4.1 14.28 4.18 14.41 4.28 14.52C4.4 14.64 4.56 14.72 4.88 14.88L10.28 17.58C10.54 17.71 10.67 17.78 10.81 17.8C10.93 17.82 11.06 17.82 11.18 17.8C11.32 17.78 11.45 17.71 11.71 17.58L17.11 14.88C17.43 14.72 17.59 14.64 17.71 14.52C17.81 14.41 17.89 14.28 17.94 14.14C18 13.99 18 13.81 18 13.45L18 7.44" stroke-opacity="1.000000" stroke-width="2.000000" stroke-linejoin="round" stroke-linecap="round" /></symbol><symbol viewBox="0 0 22 20" id="expir"><desc>Created with Pixso.</desc><defs></defs><path id="expir_Icon" d="M2 19L2 10.6C2 10.04 2 9.75 2.1 9.54C2.2 9.35 2.35 9.2 2.54 9.1C2.75 9 3.03 9 3.59 9L6.5 9M15.5 9L18.4 9C18.96 9 19.24 9 19.45 9.1C19.64 9.2 19.79 9.35 19.89 9.54C20 9.75 20 10.04 20 10.6L20 19M6.5 19L6.5 4.2C6.5 3.08 6.5 2.52 6.71 2.09C6.9 1.71 7.21 1.4 7.59 1.21C8.01 1 8.57 1 9.69 1L12.3 1C13.42 1 13.98 1 14.4 1.21C14.78 1.4 15.09 1.71 15.28 2.09C15.5 2.52 15.5 3.08 15.5 4.2L15.5 19M21 19L1 19M10 5L12 5M10 9L12 9M10 13L12 13" stroke-opacity="1.000000" stroke-width="2.000000" stroke-linejoin="round" /></symbol><symbol viewBox="0 0 70 70" id="female"><desc>Created with Pixso.</desc><defs></defs><g clip-path="url(#female_clip3370_2138)"><circle id="female_Ellipse 497" cx="35.000000" cy="27.000000" r="19.000000" stroke-opacity="1.000000" stroke-width="2.000000" /><circle id="female_Ellipse 498" cx="35.000000" cy="27.000000" r="13.000000" stroke-opacity="1.000000" stroke-width="2.000000" /><path id="female_Vector 216" d="M35.5 46L35.5 67.5M25.5 57L45.5 57" stroke-opacity="1.000000" stroke-width="2.000000" stroke-linejoin="round" /></g></symbol><clipPath id="female_clip3370_2138"><rect id="female_Frame 6504" rx="-0.500000" width="69.000000" height="69.000000" transform="translate(0.500000 0.500000)" fill-opacity="0" /></clipPath><symbol viewBox="0 0 18 28" id="female-sign"><g clip-path="url(#female-sign_clip0_2949_3011)"><path d="M8.99651 0C6.51688 0 4.26077 1.01281 2.63329 2.63329C1.01281 4.26077 0 6.51688 0 8.99651C0 11.4761 1.01281 13.7392 2.63329 15.3597C3.98137 16.7078 5.7695 17.6228 7.7532 17.9022V21.1152H5.13388C4.39348 21.1152 3.79977 21.7159 3.79977 22.4494C3.79977 23.1828 4.40047 23.7835 5.13388 23.7835H7.7532V26.4028C7.7532 27.1432 8.3539 27.7369 9.08731 27.7369C9.82072 27.7369 10.4214 27.1362 10.4214 26.4028V23.7835H13.0338C13.7742 23.7835 14.3679 23.1828 14.3679 22.4494C14.3679 21.7159 13.7672 21.1152 13.0338 21.1152H10.4214V17.8743C12.3283 17.5669 14.0536 16.6729 15.3527 15.3597C16.9802 13.7392 17.986 11.4761 17.986 8.99651C17.986 6.51688 16.9732 4.25378 15.3527 2.63329C13.7392 1.01281 11.4761 0 8.99651 0ZM13.1525 13.1595C12.0838 14.2282 10.624 14.8778 8.99651 14.8847C7.36903 14.8847 5.9092 14.2282 4.84051 13.1595C3.77183 12.0908 3.11525 10.631 3.11525 8.99651C3.11525 7.36903 3.77183 5.9092 4.84051 4.84051C5.9092 3.77183 7.36903 3.12224 8.99651 3.11525C10.624 3.11525 12.0838 3.77183 13.1525 4.84051C14.2212 5.9092 14.8778 7.36903 14.8778 8.99651C14.8778 10.624 14.2212 12.0838 13.1525 13.1595Z" /></g><defs></defs></symbol><clipPath id="female-sign_clip0_2949_3011"><rect width="18" height="27.7369" /></clipPath><symbol viewBox="0 0 24 24" id="file"><path d="M14 2.26953V6.40007C14 6.96012 14 7.24015 14.109 7.45406C14.2049 7.64222 14.3578 7.7952 14.546 7.89108C14.7599 8.00007 15.0399 8.00007 15.6 8.00007H19.7305M14 17H8M16 13H8M20 9.98822V17.2C20 18.8802 20 19.7202 19.673 20.362C19.3854 20.9265 18.9265 21.3854 18.362 21.673C17.7202 22 16.8802 22 15.2 22H8.8C7.11984 22 6.27976 22 5.63803 21.673C5.07354 21.3854 4.6146 20.9265 4.32698 20.362C4 19.7202 4 18.8802 4 17.2V6.8C4 5.11984 4 4.27976 4.32698 3.63803C4.6146 3.07354 5.07354 2.6146 5.63803 2.32698C6.27976 2 7.11984 2 8.8 2H12.0118C12.7455 2 13.1124 2 13.4577 2.08289C13.7638 2.15638 14.0564 2.27759 14.3249 2.44208C14.6276 2.6276 14.887 2.88703 15.4059 3.40589L18.5941 6.59411C19.113 7.11297 19.3724 7.3724 19.5579 7.67515C19.7224 7.94356 19.8436 8.2362 19.9171 8.5423C20 8.88757 20 9.25445 20 9.98822Z" stroke-width="2" stroke-linecap="round" stroke-linejoin="round" /></symbol><symbol viewBox="0 0 24 24" id="file-line"><path d="M9 2.003V2h10.998C20.55 2 21 2.455 21 2.992v18.016a.993.993 0 0 1-.993.992H3.993A1 1 0 0 1 3 20.993V8l6-5.997zM5.83 8H9V4.83L5.83 8zM11 4v5a1 1 0 0 1-1 1H5v10h14V4h-8z" /></symbol><symbol viewBox="0 0 22 30" id="flower-sign"><g clip-path="url(#flower-sign_clip0_2949_3004)"><path d="M15.38 9.60952C15.38 7.16116 13.4151 5.17188 10.9967 5.17188C8.57824 5.17188 6.61328 7.16116 6.61328 9.60952C6.61328 12.0579 8.57824 14.0472 10.9967 14.0472C13.4151 14.0472 15.38 12.0579 15.38 9.60952ZM13.4604 9.60952C13.4604 10.9791 12.357 12.0961 11.0042 12.0961C9.65141 12.0961 8.54801 10.9791 8.54801 9.60952C8.54801 8.23997 9.65141 7.12291 11.0042 7.12291C12.357 7.12291 13.4604 8.23997 13.4604 9.60952Z" /><path d="M21.0404 17.8885C17.3675 17.8885 14.0044 19.7171 11.9638 22.7393V19.0897C12.901 18.8372 13.6945 18.2251 14.1858 17.3835C15.4328 17.7048 16.8007 17.3376 17.7151 16.4041C18.6598 15.4478 19.015 14.1088 18.6825 12.8311C19.8086 12.1654 20.4963 10.9566 20.4963 9.60996C20.4963 8.26336 19.8086 7.05448 18.6825 6.38884C19.015 5.1111 18.6598 3.76451 17.7151 2.81577C16.7704 1.86703 15.4328 1.51508 14.1858 1.84408C13.5283 0.704064 12.3342 0.0078125 11.004 0.0078125C9.67391 0.0078125 8.47982 0.704064 7.82231 1.84408C6.57532 1.51508 5.2074 1.88999 4.29294 2.81577C3.34825 3.77216 2.99304 5.1111 3.32557 6.38884C2.1995 7.05448 1.51176 8.26336 1.51176 9.60996C1.51176 10.9566 2.1995 12.1654 3.32557 12.8311C2.99304 14.1088 3.34825 15.4554 4.29294 16.4041C5.21496 17.3376 6.58287 17.7048 7.82231 17.3835C8.30599 18.2251 9.10709 18.8372 10.0442 19.0897V22.7393C8.00369 19.7171 4.64058 17.8885 0.96762 17.8885C0.438592 17.8885 0.0078125 18.3246 0.0078125 18.8601C0.0078125 25.004 4.94289 30.0002 11.0116 30.0002C17.0803 30.0002 22.0154 25.004 22.0154 18.8601C22.0154 18.3246 21.5846 17.8885 21.0556 17.8885H21.0404ZM9.98377 27.9956C5.78933 27.5212 2.4489 24.1394 1.98033 19.893C6.17477 20.3674 9.5152 23.7492 9.98377 27.9956ZM8.7141 15.2106C8.59318 15.157 8.47226 15.1341 8.34378 15.1341C8.1624 15.1341 7.98857 15.1876 7.83742 15.2794C7.15725 15.7079 6.22011 15.6008 5.6533 15.0269C5.07136 14.4378 4.96556 13.5273 5.4039 12.8158C5.57016 12.548 5.59283 12.219 5.47947 11.9282C5.35855 11.6375 5.10915 11.4233 4.80685 11.3544C3.99819 11.1631 3.43894 10.4516 3.43894 9.60996C3.43894 8.76833 4.00575 8.05678 4.80685 7.8655C5.10915 7.79664 5.35855 7.58241 5.47947 7.29167C5.60039 7.00093 5.57016 6.67193 5.4039 6.40414C4.96556 5.69259 5.07136 4.7821 5.6533 4.19297C6.22011 3.61914 7.15725 3.51202 7.83742 3.94048C8.10194 4.10881 8.42691 4.13176 8.7141 4.00934C9.00129 3.88692 9.2129 3.63444 9.28091 3.32839C9.46985 2.50973 10.1727 1.94354 11.004 1.94354C11.8354 1.94354 12.5382 2.51738 12.7272 3.32839C12.7952 3.63444 13.0068 3.88692 13.294 4.00934C13.5812 4.13176 13.9061 4.10116 14.1706 3.93283C14.8508 3.50437 15.788 3.61148 16.3548 4.18532C16.9367 4.77445 17.0425 5.68494 16.6042 6.39649C16.4379 6.66428 16.4152 6.99328 16.5286 7.28402C16.6495 7.57476 16.8989 7.78899 17.2012 7.85785C18.0099 8.04913 18.5691 8.76068 18.5691 9.6023C18.5691 10.4439 18.0023 11.1555 17.2012 11.3468C16.8989 11.4156 16.6495 11.6298 16.5286 11.9206C16.4077 12.2113 16.4379 12.5403 16.6042 12.8081C17.0425 13.5197 16.9367 14.4302 16.3548 15.0193C15.788 15.5931 14.8433 15.7002 14.1706 15.2718C13.9061 15.1035 13.5812 15.0805 13.294 15.2029C13.0068 15.3253 12.7952 15.5778 12.7272 15.8839C12.5382 16.7025 11.8354 17.2687 11.004 17.2687C10.1727 17.2687 9.46985 16.6949 9.28091 15.8839C9.2129 15.5778 8.99373 15.3253 8.7141 15.2029V15.2106ZM12.0243 27.9956C12.4929 23.7492 15.8333 20.3674 20.0277 19.893C19.5592 24.1394 16.2187 27.5212 12.0243 27.9956Z" /></g><defs></defs></symbol><clipPath id="flower-sign_clip0_2949_3004"><rect width="22" height="30" /></clipPath><symbol viewBox="0 0 70 70" id="gen"><desc>Created with Pixso.</desc><defs></defs><g clip-path="url(#gen_clip3370_2171)"><g style="mix-blend-mode:normal"><path id="gen_Vector" d="M23.74 46.98C23.74 46.98 37.64 50.16 44.22 43.67C50.81 37.17 47.58 23.47 47.58 23.47C47.58 23.47 33.67 20.28 27.09 26.78C20.51 33.27 23.74 46.98 23.74 46.98Z" stroke-opacity="1.000000" stroke-width="2.000000" /><path id="gen_Vector" d="M29.16 51.78C34.25 51.77 42.79 51.03 47.24 46.64C51.79 42.15 52.47 35.02 52.45 31.04" stroke-opacity="1.000000" stroke-width="2.000000" stroke-linecap="round" /><path id="gen_Vector" d="M49.43 5.12C44.89 12.04 47.58 23.48 47.58 23.48C47.58 23.48 59.11 26.12 66.15 21.68" stroke-opacity="1.000000" stroke-width="2.000000" stroke-linecap="round" /><path id="gen_Vector" d="M66.14 21.68C59.11 26.12 47.58 23.48 47.58 23.48C47.58 23.48 44.88 12.05 49.42 5.12" stroke-opacity="1.000000" stroke-width="2.000000" stroke-linecap="round" /><path id="gen_Vector" d="M43.06 19.56C42.56 15.75 42.21 8.75 45.37 3.91" stroke-opacity="1.000000" stroke-width="2.000000" stroke-linecap="round" /><path id="gen_Vector" d="M19.78 42.52C15.92 42.03 8.81 41.69 3.91 44.8" stroke-opacity="1.000000" stroke-width="2.000000" stroke-linecap="round" /><path id="gen_Vector" d="M21.93 65.28C26.42 58.34 23.75 46.97 23.75 46.97C23.75 46.97 12.16 44.32 5.13 48.8" stroke-opacity="1.000000" stroke-width="2.000000" stroke-linecap="round" /><path id="gen_Vector" d="M39.31 38.64L32.21 31.64" stroke-opacity="1.000000" stroke-width="2.000000" stroke-linecap="round" /><path id="gen_Vector" d="M41.14 34.21L36.7 29.83" stroke-opacity="1.000000" stroke-width="2.000000" stroke-linecap="round" /><path id="gen_Vector" d="M34.81 40.44L30.38 36.07" stroke-opacity="1.000000" stroke-width="2.000000" stroke-linecap="round" /><path id="gen_Vector" d="M62.59 15.65L55.5 8.65" stroke-opacity="1.000000" stroke-width="2.000000" stroke-linecap="round" /><path id="gen_Vector" d="M58.11 17.46L53.67 13.08" stroke-opacity="1.000000" stroke-width="2.000000" stroke-linecap="round" /><path id="gen_Vector" d="M16.01 61.61L8.91 54.61" stroke-opacity="1.000000" stroke-width="2.000000" stroke-linecap="round" /><path id="gen_Vector" d="M17.82 57.18L13.4 52.8" stroke-opacity="1.000000" stroke-width="2.000000" stroke-linecap="round" /></g></g></symbol><clipPath id="gen_clip3370_2171"><rect id="gen_Frame 6501" rx="-0.500000" width="69.000000" height="69.000000" transform="translate(0.500000 0.500000)" fill-opacity="0" /></clipPath><symbol viewBox="0 0 20 20" id="hopper"><path d="M8.33333 15H11.6667V13.3333H8.33333V15ZM2.5 5V6.66667H17.5V5H2.5ZM5 10.8333H15V9.16667H5V10.8333Z" /></symbol><symbol viewBox="0 0 24 24" id="instagram"><g clip-path="url(#instagram_clip0_5092_908)"><path d="M16 4H8C5.79086 4 4 5.79086 4 8V16C4 18.2091 5.79086 20 8 20H16C18.2091 20 20 18.2091 20 16V8C20 5.79086 18.2091 4 16 4Z" stroke-width="1.5" stroke-linecap="round" stroke-linejoin="round" /><path d="M12 15C13.6569 15 15 13.6569 15 12C15 10.3431 13.6569 9 12 9C10.3431 9 9 10.3431 9 12C9 13.6569 10.3431 15 12 15Z" stroke-width="1.5" stroke-linecap="round" stroke-linejoin="round" /></g><defs></defs></symbol><clipPath id="instagram_clip0_5092_908"><rect width="24" height="24" rx="12" /></clipPath><symbol viewBox="0 0 200 61.7095" id="logo-white"><desc>Created with Pixso.</desc><defs></defs><path id="logo-white_Vector" d="M56.06 23.19L47.74 23.19L47.74 19.5L69.54 19.5L69.54 23.19L61.37 23.19L61.37 42.2L56.06 42.2L56.06 23.19ZM5.37 30.85C5.37 32.03 5.45 33.06 5.67 34.02C5.89 34.98 6.26 35.79 6.7 36.45C7.21 37.11 7.8 37.7 8.62 38.07C9.43 38.44 10.46 38.66 11.71 38.66C12.89 38.66 14.07 38.51 15.1 38.29C16.13 38.07 17.23 37.7 18.41 37.26L19.59 40.65C18.49 41.24 17.16 41.68 15.69 41.97C14.21 42.34 12.59 42.49 10.97 42.49C8.84 42.49 7.07 42.2 5.67 41.61C4.27 41.02 3.16 40.21 2.28 39.17C1.47 38.14 0.81 36.96 0.51 35.56C0.14 34.16 0 32.69 0 31.07C0 29.82 0.14 28.42 0.44 27.02C0.73 25.62 1.32 24.29 2.13 23.11C2.94 21.93 4.12 20.9 5.59 20.17C7.07 19.36 8.98 18.99 11.27 18.99C12.3 18.99 13.4 19.06 14.66 19.21C15.83 19.36 17.09 19.65 18.41 20.09L17.46 23.7C16.35 23.33 15.32 23.19 14.44 23.04C13.55 22.97 12.74 22.89 12 22.89C9.87 22.89 8.25 23.56 7.14 24.96C5.96 26.58 5.37 28.42 5.37 30.85ZM88.7 42.2L88.7 26.72L88.48 26.72L77.72 42.2L72.71 42.2L72.71 19.5L78.02 19.5L78.02 34.83L78.24 34.83L88.84 19.5L93.93 19.5L93.93 42.2L88.7 42.2ZM39.26 42.2L39.26 26.72L39.04 26.72L28.29 42.2L23.28 42.2L23.28 19.5L28.58 19.5L28.58 34.83L28.8 34.83L39.41 19.5L44.49 19.5L44.49 42.2L39.26 42.2Z" fill-opacity="1.000000" fill-rule="nonzero" /><path id="logo-white_Vector" d="M155.96 31.73L155.96 38.44L161.71 38.44C162.67 38.44 163.55 38.14 164.21 37.55C164.95 36.96 165.32 36.08 165.32 34.98C165.32 34.39 165.25 33.87 165.02 33.5C164.8 33.06 164.51 32.77 164.14 32.47C163.77 32.18 163.33 32.03 162.89 31.88C162.45 31.73 161.93 31.73 161.34 31.73L155.96 31.73ZM150.66 19.5L168.27 19.5L168.27 23.19L155.96 23.19L155.96 28.35L162.3 28.35C163.55 28.35 164.66 28.49 165.69 28.79C166.72 29.08 167.6 29.52 168.34 30.04C169.08 30.63 169.67 31.29 170.03 32.1C170.48 32.91 170.62 33.94 170.62 35.05C170.62 36.15 170.48 37.11 170.11 38C169.74 38.88 169.22 39.62 168.56 40.21C167.9 40.8 167.09 41.31 166.13 41.61C165.17 41.9 164.14 42.12 162.96 42.12L150.66 42.12L150.66 19.5ZM113.89 42.2L113.89 23.19L107.12 23.19L106.97 25.55C106.82 28.05 106.6 30.26 106.45 32.32C106.31 34.39 105.94 36.15 105.35 37.7C104.83 39.25 103.95 40.5 102.84 41.46C101.74 42.42 100.12 43.15 98.13 43.52L96.73 40.06C97.98 39.62 98.94 39.03 99.68 38.36C100.34 37.7 100.85 36.82 101.22 35.64C101.59 34.53 101.81 33.13 101.89 31.44C102.03 29.75 102.11 27.68 102.25 25.25L102.55 19.43L119.2 19.43L119.2 42.12L113.89 42.2ZM132.9 32.54C131.43 32.62 130.32 32.91 129.66 33.43C129 33.94 128.63 34.61 128.63 35.49C128.63 36.45 128.92 37.26 129.59 37.7C130.18 38.22 131.21 38.44 132.61 38.44C133.57 38.44 134.52 38.22 135.56 37.85C136.59 37.48 137.62 36.96 138.58 36.3L138.58 32.18L132.9 32.54ZM143.66 38.51L146.75 38.51L147.05 41.24C146.39 41.61 144.25 42.64 142.18 42.64C139.61 42.64 138.94 41.46 138.8 39.84L138.58 39.84C137.69 40.58 136.95 41.02 136.14 41.39C135.33 41.75 134.52 42.05 133.79 42.27C133.05 42.49 132.39 42.56 131.87 42.56C131.28 42.56 130.84 42.64 130.47 42.64C129.07 42.64 127.89 42.42 126.93 41.97C125.98 41.53 125.24 41.02 124.72 40.35C124.21 39.69 123.84 38.95 123.62 38.22C123.4 37.48 123.32 36.74 123.32 36.08C123.32 34.98 123.55 34.02 124.06 33.21C124.58 32.4 125.24 31.66 126.05 31.07C126.93 30.48 127.89 30.04 129.07 29.75C130.18 29.45 131.43 29.23 132.75 29.16L138.58 28.86L138.58 27.46C138.58 25.77 138.21 24.59 137.54 23.92C136.88 23.26 135.63 22.89 133.71 22.89C132.53 22.89 131.28 22.97 129.96 23.19C128.63 23.41 127.38 23.7 126.2 24.07C126.05 23.56 125.39 21.35 125.24 20.83C126.64 20.24 128.19 19.8 129.96 19.43C131.72 19.14 133.42 18.91 134.97 18.91C136.29 18.91 137.47 19.06 138.58 19.28C139.68 19.58 140.56 19.95 141.3 20.61C142.04 21.2 142.63 22.01 143 22.97C143.44 23.92 143.59 25.18 143.59 26.58L143.59 38.51L143.66 38.51Z" fill-opacity="1.000000" fill-rule="nonzero" /><path id="logo-white_Vector" d="M196.26 35.49C193.61 36.08 190.96 34.53 190.29 31.96C189.63 29.38 191.25 26.8 193.9 26.14C196.56 25.55 199.21 27.09 199.87 29.67C200.46 32.32 198.91 34.9 196.26 35.49Z" fill-opacity="1.000000" fill-rule="nonzero" /><path id="logo-white_Vector" d="M185.8 10.59C184.11 12.14 184.11 14.72 185.73 16.34C187.35 17.96 189.93 18.03 191.62 16.48C193.24 14.94 193.31 12.36 191.69 10.74C190.15 9.12 187.49 9.04 185.8 10.59Z" fill-opacity="1.000000" fill-rule="nonzero" /><path id="logo-white_Vector" d="M170.77 2.41C170.25 4.18 171.29 6.1 173.13 6.61C174.97 7.13 176.88 6.1 177.4 4.33C177.92 2.56 176.88 0.72 175.04 0.13C173.2 -0.39 171.29 0.64 170.77 2.41Z" fill-opacity="1.000000" fill-rule="nonzero" /><path id="logo-white_Vector" d="M185.8 51.04C184.11 49.49 184.11 46.91 185.73 45.29C187.35 43.67 189.93 43.6 191.62 45.14C193.24 46.69 193.31 49.27 191.69 50.89C190.15 52.58 187.49 52.66 185.8 51.04Z" fill-opacity="1.000000" fill-rule="nonzero" /><path id="logo-white_Vector" d="M170.77 59.29C170.25 57.52 171.29 55.6 173.13 55.09C174.97 54.57 176.88 55.6 177.4 57.37C177.92 59.14 176.88 60.98 175.04 61.57C173.2 62.09 171.29 61.06 170.77 59.29Z" fill-opacity="1.000000" fill-rule="nonzero" /></symbol><symbol viewBox="0 0 24 24" id="mail-line"><path d="M3 3h18a1 1 0 0 1 1 1v16a1 1 0 0 1-1 1H3a1 1 0 0 1-1-1V4a1 1 0 0 1 1-1zm17 4.238l-7.928 7.1L4 7.216V19h16V7.238zM4.511 5l7.55 6.662L19.502 5H4.511z" /></symbol><symbol viewBox="0 0 70 70" id="male"><desc>Created with Pixso.</desc><defs></defs><g clip-path="url(#male_clip3370_2146)"><circle id="male_Ellipse 497" cx="29.000000" cy="41.000000" r="19.000000" stroke-opacity="1.000000" stroke-width="2.000000" /><circle id="male_Ellipse 498" cx="29.000000" cy="41.000000" r="13.000000" stroke-opacity="1.000000" stroke-width="2.000000" /><path id="male_Vector 215" d="M44 27L60 11M44 11L60 11L60 27" stroke-opacity="1.000000" stroke-width="2.000000" stroke-linejoin="round" /></g></symbol><clipPath id="male_clip3370_2146"><rect id="male_Frame 6503" rx="-0.500000" width="69.000000" height="69.000000" transform="translate(0.500000 0.500000)" fill-opacity="0" /></clipPath><symbol viewBox="0 0 23 23" id="male-sign"><g clip-path="url(#male-sign_clip0_2949_3018)"><path d="M13.4659 1.40846C13.4659 2.19012 14.0932 2.81693 14.8592 2.81693H18.2147L15.1072 5.95832C13.5243 4.73421 11.5401 3.98942 9.3955 3.98942C6.8059 3.98942 4.44244 5.05867 2.75008 6.76948C1.05772 8.49503 0 10.8769 0 13.4947C0 16.1125 1.05772 18.5018 2.75008 20.2126C4.44244 21.9307 6.8059 23 9.3955 22.9926C11.9851 22.9926 14.3486 21.9234 16.0409 20.2126C17.7406 18.5018 18.791 16.1125 18.791 13.4947C18.791 11.4447 18.1418 9.54216 17.0403 7.99359L20.1989 4.7932V8.22219C20.1989 9.00385 20.8262 9.63065 21.5921 9.63065C22.3581 9.63065 22.9854 8.99647 22.9854 8.22219V0H14.8446C14.0714 0 13.4513 0.634178 13.4513 1.40846H13.4659ZM13.7431 17.8823C12.627 19.0106 11.1024 19.7037 9.3955 19.7037C7.69585 19.7037 6.17127 19.0106 5.05519 17.8823C3.93911 16.7541 3.25341 15.2129 3.25341 13.4947C3.25341 11.7765 3.93911 10.2353 5.05519 9.10709C6.17127 7.97884 7.69585 7.29304 9.3955 7.28567C11.0951 7.28567 12.6197 7.97884 13.7431 9.10709C14.8592 10.2353 15.5376 11.7765 15.5449 13.4947C15.5449 15.2129 14.8592 16.7541 13.7431 17.8823Z" /></g><defs></defs></symbol><clipPath id="male-sign_clip0_2949_3018"><rect width="23" height="23" /></clipPath><symbol viewBox="0 0 12 17" id="mark"><path d="M6 0C2.69075 0 0 2.16791 0 6.35707C0 10.5462 6 16.7439 6 16.7439C6 16.7439 12 10.5462 12 6.35707C12 2.16791 9.31562 0 6 0ZM6 8.37195C4.68013 8.37195 3.60255 7.29437 3.60255 5.9745C3.60255 4.65462 4.68013 3.57705 6 3.57705C7.31987 3.57705 8.39745 4.64825 8.39745 5.9745C8.39745 7.30074 7.32625 8.37195 6 8.37195Z" /></symbol><symbol viewBox="0 0 24 24" id="menu-line"><path d="M3 4h18v2H3V4zm0 7h18v2H3v-2zm0 7h18v2H3v-2z" /></symbol><symbol viewBox="0 0 20 20" id="minus"><path d="M4.16663 9.16667H15.8333V10.8333H4.16663V9.16667Z" /></symbol><symbol viewBox="0 0 24 24" id="more-line"><path d="M4.5 10.5c-.825 0-1.5.675-1.5 1.5s.675 1.5 1.5 1.5S6 12.825 6 12s-.675-1.5-1.5-1.5zm15 0c-.825 0-1.5.675-1.5 1.5s.675 1.5 1.5 1.5S21 12.825 21 12s-.675-1.5-1.5-1.5zm-7.5 0c-.825 0-1.5.675-1.5 1.5s.675 1.5 1.5 1.5 1.5-.675 1.5-1.5-.675-1.5-1.5-1.5z" /></symbol><symbol viewBox="0 0 20 20" id="notification-info"><path d="M10 20C4.477 20 0 15.523 0 10C0 4.477 4.477 0 10 0C15.523 0 20 4.477 20 10C20 15.523 15.523 20 10 20ZM10 18C12.1217 18 14.1566 17.1571 15.6569 15.6569C17.1571 14.1566 18 12.1217 18 10C18 7.87827 17.1571 5.84344 15.6569 4.34315C14.1566 2.84285 12.1217 2 10 2C7.87827 2 5.84344 2.84285 4.34315 4.34315C2.84285 5.84344 2 7.87827 2 10C2 12.1217 2.84285 14.1566 4.34315 15.6569C5.84344 17.1571 7.87827 18 10 18V18ZM9 5H11V7H9V5ZM9 9H11V15H9V9Z" /></symbol><symbol viewBox="0 0 7.65515 13.9048" id="page-right"><desc>Created with Pixso.</desc><defs></defs><path id="page-right_Vector" d="M0.12 12.12L4.47 7.28C4.64 7.09 4.64 6.8 4.47 6.61L0.12 1.77C-0.05 1.58 -0.05 1.3 0.12 1.11L0.97 0.16C1.17 -0.06 1.52 -0.06 1.72 0.16L7.52 6.61C7.69 6.8 7.69 7.09 7.52 7.28L1.72 13.73C1.52 13.96 1.17 13.96 0.97 13.73L0.12 12.79C-0.05 12.6 -0.05 12.31 0.12 12.12Z" fill-opacity="1.000000" fill-rule="nonzero" /></symbol><symbol viewBox="0 0 70 70" id="pcr"><desc>Created with Pixso.</desc><defs></defs><g clip-path="url(#pcr_clip3370_2154)"><path id="pcr_Vector" d="M49.48 42.34L42.76 42.34" stroke-opacity="1.000000" stroke-width="2.000000" stroke-linejoin="round" stroke-linecap="round" /><path id="pcr_Vector" d="M49.48 50.08L42.76 50.08" stroke-opacity="1.000000" stroke-width="2.000000" stroke-linejoin="round" stroke-linecap="round" /><path id="pcr_Vector" d="M49.48 26.87L42.76 26.87" stroke-opacity="1.000000" stroke-width="2.000000" stroke-linejoin="round" stroke-linecap="round" /><path id="pcr_Vector" d="M49.48 34.6L42.76 34.6" stroke-opacity="1.000000" stroke-width="2.000000" stroke-linejoin="round" stroke-linecap="round" /><path id="pcr_Vector" d="M29.88 15.33C28.65 15.33 27.66 14.33 27.66 13.11C27.66 11.88 28.65 10.88 29.88 10.88L52.77 10.88C54 10.88 55 11.88 55 13.11C55 14.33 54 15.33 52.77 15.33L49.48 15.33C49.48 25.23 49.48 47.39 49.48 54.7C49.48 59.72 46.53 63.79 41.33 63.79C36.12 63.79 33.18 59.72 33.18 54.7C33.18 49.39 33.18 19.52 33.18 15.33L33.17 15.33L29.88 15.33Z" stroke-opacity="1.000000" stroke-width="2.000000" stroke-linejoin="round" /><path id="pcr_Vector" d="M49.48 15.33L44.77 15.33" stroke-opacity="1.000000" stroke-width="2.000000" stroke-linejoin="round" stroke-linecap="round" /><path id="pcr_Vector" d="M33.87 10.51L33.87 8.43C33.87 7.51 34.62 6.76 35.54 6.76L47.12 6.76C48.04 6.76 48.79 7.51 48.79 8.43L48.79 10.51" stroke-opacity="1.000000" stroke-width="2.000000" stroke-linejoin="round" stroke-linecap="round" /><path id="pcr_Vector" d="M19.18 6.76L19.18 47.03" stroke-opacity="1.000000" stroke-width="2.000000" stroke-linejoin="round" stroke-linecap="round" /><path id="pcr_Vector" d="M15.58 54.38C14.72 56.65 14.8 59.17 15.88 61.33C17.24 64.02 19.09 63.75 19.18 63.79C19.26 63.75 21.11 64.02 22.47 61.33C23.55 59.17 23.63 56.65 22.77 54.38C21.48 50.97 19.18 47.03 19.18 47.03C19.18 47.03 16.87 50.97 15.58 54.38Z" stroke-opacity="1.000000" stroke-width="2.000000" stroke-linejoin="round" /></g></symbol><clipPath id="pcr_clip3370_2154"><rect id="pcr_Frame 6502" rx="-0.500000" width="69.000000" height="69.000000" transform="translate(0.500000 0.500000)" fill-opacity="0" /></clipPath><symbol viewBox="0 0 40 47" id="person"><path d="M20 20.0765C21.8955 20.0765 23.7485 19.5145 25.3245 18.4614C26.9005 17.4083 28.129 15.9115 28.8543 14.1603C29.5798 12.4091 29.7695 10.4821 29.3995 8.62306C29.0298 6.76401 28.117 5.05636 26.7765 3.71611C25.4363 2.37584 23.7285 1.46316 21.8695 1.09346C20.0103 0.723788 18.0833 0.913687 16.3322 1.63919C14.581 2.36469 13.0843 3.59319 12.0314 5.16931C10.9784 6.74546 10.4166 8.59844 10.4168 10.4939C10.4199 13.0345 11.4306 15.4701 13.2272 17.2665C15.0237 19.063 17.4595 20.0735 20 20.0765ZM20 3.40969C21.401 3.40964 22.7705 3.82501 23.9352 4.60329C25.1002 5.38156 26.0082 6.48779 26.5445 7.78209C27.0805 9.07639 27.221 10.5006 26.9478 11.8747C26.6745 13.2487 26 14.5109 25.0095 15.5016C24.0188 16.4923 22.7567 17.167 21.3827 17.4405C20.0087 17.7139 18.5845 17.5737 17.29 17.0377C15.9958 16.5017 14.8894 15.5939 14.1109 14.4291C13.3325 13.2643 12.9169 11.8949 12.9168 10.4939C12.9189 8.61601 13.6659 6.81561 14.9938 5.48771C16.3218 4.15984 18.122 3.41286 20 3.41069V3.40969ZM39.2675 32.979C35.529 29.238 30.7762 26.6747 25.5965 25.6062L20 34.1912L14.4035 25.6072C9.22388 26.676 4.47103 29.239 0.732501 32.98L0 33.7125V46.5015H40V33.7125L39.2675 32.979ZM37.5 44.0015H2.5V34.7587C2.52775 34.7337 2.8 34.464 2.828 34.439C5.77842 31.5752 9.409 29.5097 13.378 28.4362L16.293 32.8445L18.8878 36.7787L20 38.459L21.125 36.764L23.6908 32.8727L26.623 28.4362C30.592 29.5095 34.2227 31.5752 37.173 34.439C37.2012 34.464 37.473 34.7335 37.501 34.7587L37.5 44.0015Z" /></symbol><symbol viewBox="0 0 9 10" id="phone"><g clip-path="url(#phone_clip0_2949_3771)"><path d="M2.00134 0L2.11709 0.0142208C2.23779 0.0345212 2.35228 0.0812894 2.45206 0.151047C2.55184 0.220805 2.63435 0.311763 2.69346 0.417163C2.88857 0.740155 3.05015 1.0816 3.17578 1.43636C3.25777 1.65442 3.33494 1.87722 3.40005 2.10002C3.42938 2.20813 3.44078 2.32018 3.43381 2.43186C3.42937 2.51998 3.40551 2.60611 3.36387 2.68427C3.32223 2.76244 3.26381 2.83077 3.19266 2.88457C3.02703 3.01588 2.84659 3.12802 2.65487 3.21878C2.50053 3.29936 2.34619 3.37995 2.19426 3.4558C2.16521 3.46923 2.13917 3.48822 2.11768 3.51167C2.09619 3.53512 2.07969 3.56255 2.06913 3.59235C2.05857 3.62216 2.05418 3.65375 2.0562 3.68524C2.05823 3.71674 2.06663 3.74751 2.08092 3.77577C2.54285 4.77048 3.16408 5.68595 3.92095 6.48732C4.31514 6.91429 4.74777 7.30538 5.21356 7.65584C5.24075 7.68175 5.27378 7.701 5.30995 7.71203C5.34613 7.72306 5.38443 7.72555 5.42177 7.71932C5.45911 7.71309 5.49444 7.6983 5.52488 7.67615C5.55532 7.654 5.58003 7.62512 5.597 7.59184C5.7511 7.33703 5.94291 7.10618 6.16613 6.90685C6.3084 6.77516 6.48712 6.68775 6.6798 6.65561C6.79831 6.63588 6.92013 6.65157 7.02947 6.70064C7.64509 6.97912 8.20975 7.3555 8.7007 7.81464C8.7709 7.88643 8.8324 7.96597 8.88398 8.05166C8.95349 8.15329 8.99512 8.27085 9.00484 8.39293C9.01456 8.51502 8.99203 8.6375 8.93944 8.74851C8.82898 8.98763 8.66394 9.19851 8.45713 9.36478C7.95393 9.80642 7.29312 10.034 6.61951 9.99763C6.12236 9.96432 5.63699 9.83377 5.19185 9.61365C4.10083 9.10669 3.13048 8.3799 2.34378 7.48044C1.76841 6.84698 1.27435 6.14648 0.87272 5.39465C0.55293 4.78602 0.309973 4.14128 0.149247 3.47475C0.0670217 3.14963 0.0217294 2.81655 0.0141997 2.48162C0.00198606 1.89778 0.202079 1.32881 0.578508 0.876988C0.834564 0.552212 1.16509 0.291507 1.54314 0.116139C1.63237 0.075845 1.72883 0.0521491 1.82288 0.0189659L2.00134 0Z" /></g><defs></defs></symbol><clipPath id="phone_clip0_2949_3771"><rect width="9" height="10" /></clipPath><symbol viewBox="0 0 24 24" id="phone-line"><path d="M9.366 10.682a10.556 10.556 0 0 0 3.952 3.952l.884-1.238a1 1 0 0 1 1.294-.296 11.422 11.422 0 0 0 4.583 1.364 1 1 0 0 1 .921.997v4.462a1 1 0 0 1-.898.995c-.53.055-1.064.082-1.602.082C9.94 21 3 14.06 3 5.5c0-.538.027-1.072.082-1.602A1 1 0 0 1 4.077 3h4.462a1 1 0 0 1 .997.921A11.422 11.422 0 0 0 10.9 8.504a1 1 0 0 1-.296 1.294l-1.238.884zm-2.522-.657l1.9-1.357A13.41 13.41 0 0 1 7.647 5H5.01c-.006.166-.009.333-.009.5C5 12.956 11.044 19 18.5 19c.167 0 .334-.003.5-.01v-2.637a13.41 13.41 0 0 1-3.668-1.097l-1.357 1.9a12.442 12.442 0 0 1-1.588-.75l-.058-.033a12.556 12.556 0 0 1-4.702-4.702l-.033-.058a12.442 12.442 0 0 1-.75-1.588z" /></symbol><symbol viewBox="0 0 20 20" id="plus"><path d="M9.16667 9.16663V4.16663H10.8333V9.16663H15.8333V10.8333H10.8333V15.8333H9.16667V10.8333H4.16667V9.16663H9.16667Z" /></symbol><symbol viewBox="0 0 21.5046 22" id="princ"><desc>Created with Pixso.</desc><defs></defs><path id="princ_Icon" d="M6 21L6 10M3 21C1.89 21 1 20.1 1 19L1 12C1 10.89 1.89 10 3 10L5.35 10C5.74 10 6.1 9.76 6.26 9.4L9.78 1.48C9.91 1.19 10.2 1 10.53 1C11.89 1 13 2.1 13 3.46L13 7C13 7.55 13.44 8 14 8L17.5 8C19.34 8 20.74 9.63 20.46 11.45L19.39 18.45C19.16 19.91 17.9 21 16.42 21L3 21Z" stroke-opacity="1.000000" stroke-width="2.000000" stroke-linejoin="round" stroke-linecap="round" /></symbol><symbol viewBox="0 0 20 20" id="search"><path d="M15.0258 13.8475L18.595 17.4159L17.4158 18.595L13.8475 15.0259C12.5198 16.0902 10.8683 16.6691 9.16666 16.6667C5.02666 16.6667 1.66666 13.3067 1.66666 9.16669C1.66666 5.02669 5.02666 1.66669 9.16666 1.66669C13.3067 1.66669 16.6667 5.02669 16.6667 9.16669C16.6691 10.8684 16.0902 12.5198 15.0258 13.8475ZM13.3542 13.2292C14.4118 12.1416 15.0024 10.6837 15 9.16669C15 5.94335 12.3892 3.33335 9.16666 3.33335C5.94332 3.33335 3.33332 5.94335 3.33332 9.16669C3.33332 12.3892 5.94332 15 9.16666 15C10.6837 15.0024 12.1416 14.4118 13.2292 13.3542L13.3542 13.2292V13.2292Z" /></symbol><symbol viewBox="0 0 22 30" id="search-sign"><g clip-path="url(#search-sign_clip0_2949_2999)"><path d="M18.1182 27.0936H13.6431V25.1658C15.728 24.8779 17.6646 23.9358 19.1737 22.418C20.9968 20.5861 22 18.1523 22 15.5615C22 12.3688 20.456 9.47271 17.9088 7.68445L20.0198 4.95407C20.2292 4.67493 20.3251 4.33472 20.2815 3.98579C20.2379 3.64559 20.0547 3.33155 19.7843 3.11347L19.1911 2.65114L19.383 2.31966C19.6535 1.85732 19.54 1.26414 19.1213 0.941385L18.3711 0.356928C17.9699 0.0428912 17.3941 0.069061 17.0103 0.409267L16.6788 0.705857L16.1205 0.269695C15.5535 -0.17519 14.7248 -0.0705109 14.2887 0.505223L6.64711 10.3799C6.43775 10.6591 6.34179 10.9993 6.38541 11.3482C6.42902 11.6884 6.61221 12.0024 6.88263 12.2205L7.42347 12.6392L7.17922 13.0492C6.9088 13.5116 7.0222 14.1047 7.44092 14.4275L8.19112 15.012C8.38303 15.1603 8.60983 15.23 8.83664 15.23C9.08961 15.23 9.35131 15.1341 9.55194 14.9596L9.94449 14.602L10.5377 15.0556C10.7732 15.2388 11.0611 15.326 11.3402 15.326C11.7328 15.326 12.1166 15.1515 12.3783 14.8201L16.3037 9.75185C18.2141 11.0516 19.3743 13.2063 19.3743 15.5703C19.3743 19.4695 16.2165 22.6448 12.3172 22.6535H12.2998C9.30769 22.6535 6.67328 20.7606 5.6701 18.0302H6.96114C7.63283 18.0302 8.18239 17.4806 8.18239 16.809C8.18239 16.1373 7.63283 15.5877 6.96114 15.5877H1.22125C0.549564 15.5877 0 16.1373 0 16.809C0 17.4806 0.549564 18.0302 1.22125 18.0302H2.94845C3.9429 21.8423 7.1705 24.6599 11.0262 25.1745V27.0936H6.54243C5.87074 27.0936 5.32117 27.6432 5.32117 28.3149C5.32117 28.9866 5.87074 29.5362 6.54243 29.5362H18.1182C18.7899 29.5362 19.3394 28.9866 19.3394 28.3149C19.3394 27.6432 18.7899 27.0936 18.1182 27.0936ZM11.1134 12.1769L9.51705 10.9382L15.5535 3.13964L17.1499 4.37834L11.1134 12.1769Z" /></g><defs></defs></symbol><clipPath id="search-sign_clip0_2949_2999"><rect width="22" height="29.5282" /></clipPath><symbol viewBox="0 0 20 14" id="serv"><desc>Created with Pixso.</desc><defs></defs><path id="serv_Icon" d="M1 7L19 7M1 1L19 1M1 13L19 13" stroke-opacity="1.000000" stroke-width="2.000000" stroke-linejoin="round" /></symbol><symbol viewBox="0 0 46 58" id="shield"><path d="M23 0.312256L0.5 9.21977V28.1515C0.507325 32.9772 1.78108 37.7167 4.19398 41.896C6.60688 46.0752 10.0744 49.548 14.25 51.9672L23 57.0175L31.75 51.9662C35.9255 49.5472 39.393 46.0745 41.8058 41.8955C44.2188 37.7162 45.4925 32.9772 45.5 28.1515V9.21977L23 0.312256ZM43 28.1515C42.9933 32.5385 41.8353 36.847 39.6418 40.6462C37.4482 44.4452 34.296 47.6022 30.5 49.8015L23 54.1312L15.5 49.8015C11.704 47.6022 8.55175 44.4455 6.3582 40.6462C4.16465 36.847 3.00668 32.5385 3 28.1515V10.9188L23 3.00152L43 10.9193V28.1515ZM15.5465 23.9227L13.7787 25.6902L21.4937 33.405L32.69 22.2113L30.9222 20.4438L21.4937 29.87L15.5465 23.9227Z" /></symbol><symbol viewBox="0 0 24 24" id="shopping-cart-line"><path d="M4 16V4H2V2h3a1 1 0 0 1 1 1v12h12.438l2-8H8V5h13.72a1 1 0 0 1 .97 1.243l-2.5 10a1 1 0 0 1-.97.757H5a1 1 0 0 1-1-1zm2 7a2 2 0 1 1 0-4 2 2 0 0 1 0 4zm12 0a2 2 0 1 1 0-4 2 2 0 0 1 0 4z" /></symbol><symbol viewBox="0 0 16 14" id="slim-arrow-left"><path d="M1 7H15M1 7L7 13M1 7L7 1" stroke-width="1.5" stroke-linecap="round" stroke-linejoin="round" /></symbol><symbol viewBox="0 0 16 14" id="slim-arrow-right"><path d="M1 7H15M15 7L9 13M15 7L9 1" stroke-width="1.5" stroke-linecap="round" stroke-linejoin="round" /></symbol><symbol viewBox="0 0 12.1914 11.6929" id="star"><desc>Created with Pixso.</desc><defs></defs><path id="star_Star 1" d="M5.21 0.53L4.03 2.76C3.88 3.04 3.62 3.23 3.31 3.28L0.83 3.71C0.03 3.85 -0.28 4.82 0.28 5.39L2.04 7.2C2.25 7.43 2.36 7.74 2.31 8.04L1.95 10.54C1.84 11.34 2.66 11.94 3.38 11.58L5.65 10.47C5.93 10.33 6.25 10.33 6.53 10.47L8.8 11.58C9.52 11.94 10.34 11.34 10.23 10.54L9.87 8.04C9.83 7.74 9.93 7.43 10.14 7.2L11.9 5.39C12.46 4.82 12.15 3.85 11.36 3.71L8.87 3.28C8.56 3.23 8.3 3.04 8.15 2.76L6.97 0.53C6.6 -0.18 5.58 -0.18 5.21 0.53Z" fill-opacity="1.000000" fill-rule="evenodd" /></symbol><symbol viewBox="0 0 12.1914 11.6929" id="star-new"><desc>Created with Pixso.</desc><defs></defs><path id="star-new_Star 1" d="M5.21 0.53L4.03 2.76C3.88 3.04 3.62 3.23 3.31 3.28L0.83 3.71C0.03 3.85 -0.28 4.82 0.28 5.39L2.04 7.2C2.25 7.43 2.36 7.74 2.31 8.04L1.95 10.54C1.84 11.34 2.66 11.94 3.38 11.58L5.65 10.47C5.93 10.33 6.25 10.33 6.53 10.47L8.8 11.58C9.52 11.94 10.34 11.34 10.23 10.54L9.87 8.04C9.83 7.74 9.93 7.43 10.14 7.2L11.9 5.39C12.46 4.82 12.15 3.85 11.36 3.71L8.87 3.28C8.56 3.23 8.3 3.04 8.15 2.76L6.97 0.53C6.6 -0.18 5.58 -0.18 5.21 0.53Z" fill-opacity="1.000000" fill-rule="evenodd" /></symbol><symbol viewBox="0 0 23.5938 17.4707" id="success"><desc>Created with Pixso.</desc><defs></defs><path id="success_Vector 41" d="M3.01 8.74L8.86 14.47L20.58 3.01" stroke-opacity="1.000000" stroke-width="6.000000" stroke-linejoin="round" stroke-linecap="round" /></symbol><symbol viewBox="0 0 216.329 168" id="success-mob"><desc>Created with Pixso.</desc><defs></defs><path id="success-mob_Vector" d="M210.39 32.63C217.97 25.49 218.34 13.54 211.22 5.94C204.09 -1.66 192.16 -2.02 184.58 5.12L68.07 114.9L32.42 77.78C25.2 70.27 13.27 70.04 5.77 77.27C-1.72 84.5 -1.96 96.46 5.26 103.97L66.74 168L210.39 32.64L210.39 32.63Z" fill-opacity="1.000000" fill-rule="nonzero" /></symbol><symbol viewBox="0 0 28 28" id="telegram"><desc>Created with Pixso.</desc><defs></defs><path id="telegram_Vector" d="M14 0C6.26 0 0 6.26 0 14C0 21.73 6.26 28 14 28C21.73 28 28 21.73 28 14C28 6.26 21.73 0 14 0ZM20.9 9.78C20.85 9.99 20.08 13.65 18.57 20.75C18.46 21.22 18.3 21.51 18.1 21.61C17.9 21.72 17.7 21.77 17.51 21.77C17.37 21.74 17.25 21.68 17.14 21.61C17.04 21.54 15.94 20.76 13.84 19.28L12.55 18.34L11.84 17.86L11.66 17.63C11.57 17.49 11.53 17.36 11.54 17.21C11.54 17.07 11.6 16.95 11.69 16.84L12.43 16.13L13.01 15.58L13.88 14.71L14.92 13.74L15.89 12.82L16.62 12.11C16.77 11.93 16.86 11.8 16.9 11.74C17 11.57 16.97 11.46 16.9 11.42C16.84 11.39 16.76 11.34 16.55 11.42C16.45 11.45 16.27 11.56 15.99 11.74L13.85 13.09L11.15 14.81L9.4 15.95C9.14 16.07 8.89 16.13 8.64 16.13C8.38 16.13 7.24 15.75 5.18 14.98C5 14.9 4.88 14.79 4.83 14.66C4.75 14.45 4.74 14.3 4.78 14.16C4.82 14.02 4.95 13.85 5.18 13.74C5.33 13.68 6.56 13.21 8.86 12.36L13.88 10.43L18.1 8.84L19.7 8.25C19.86 8.2 19.97 8.17 20.05 8.17C20.28 8.17 20.56 8.27 20.66 8.35C20.75 8.44 20.95 8.65 21 8.91C21.04 9.23 20.93 9.61 20.9 9.78Z" fill-opacity="1.000000" fill-rule="nonzero" /></symbol><symbol viewBox="0 0 24 24" id="time-line"><path d="M12 22C6.477 22 2 17.523 2 12S6.477 2 12 2s10 4.477 10 10-4.477 10-10 10zm0-2a8 8 0 1 0 0-16 8 8 0 0 0 0 16zm1-8h4v2h-6V7h2v5z" /></symbol><symbol viewBox="0 0 24 24" id="twitter"><g clip-path="url(#twitter_clip0_5092_872)"><path d="M22 4.01001C21 4.50001 20.02 4.69901 19 5.00001C17.879 3.73501 16.217 3.66501 14.62 4.26301C13.023 4.86101 11.977 6.32301 12 8.00001V9.00001C8.755 9.08301 5.865 7.60501 4 5.00001C4 5.00001 -0.182 12.433 8 16C6.128 17.247 4.261 18.088 2 18C5.308 19.803 8.913 20.423 12.034 19.517C15.614 18.477 18.556 15.794 19.685 11.775C20.0218 10.5527 20.189 9.28987 20.182 8.02201C20.18 7.77301 21.692 5.25001 22 4.00901V4.01001Z" stroke-width="1.5" stroke-linecap="round" stroke-linejoin="round" /></g><defs></defs></symbol><clipPath id="twitter_clip0_5092_872"><rect width="24" height="24" /></clipPath><symbol viewBox="0 0 512 512" id="user"><g><circle cx="256" cy="128" r="128" /><path d="M256,298.667c-105.99,0.118-191.882,86.01-192,192C64,502.449,73.551,512,85.333,512h341.333   c11.782,0,21.333-9.551,21.333-21.333C447.882,384.677,361.99,298.784,256,298.667z" /></g></symbol><symbol viewBox="0 0 24 24" id="user (2)"><path d="M12,12A6,6,0,1,0,6,6,6.006,6.006,0,0,0,12,12ZM12,2A4,4,0,1,1,8,6,4,4,0,0,1,12,2Z" /><path d="M12,14a9.01,9.01,0,0,0-9,9,1,1,0,0,0,2,0,7,7,0,0,1,14,0,1,1,0,0,0,2,0A9.01,9.01,0,0,0,12,14Z" /></symbol><symbol viewBox="0 0 24 24" id="user-line"><path d="M4 22a8 8 0 1 1 16 0h-2a6 6 0 1 0-12 0H4zm8-9c-3.315 0-6-2.685-6-6s2.685-6 6-6 6 2.685 6 6-2.685 6-6 6zm0-2c2.21 0 4-1.79 4-4s-1.79-4-4-4-4 1.79-4 4 1.79 4 4 4z" /></symbol><symbol viewBox="0 0 22 22" id="value"><desc>Created with Pixso.</desc><defs></defs><path id="value_Icon" d="M11 21C5.47 21 1 16.52 1 11C1 5.47 5.47 1 11 1C16.52 1 21 5.47 21 11C21 16.52 16.52 21 11 21ZM7.07 7.65C5.82 8.72 5.64 10.51 6.63 11.78C7.26 12.59 8.87 14.09 9.95 15.07C10.31 15.39 10.49 15.55 10.7 15.62C10.89 15.67 11.1 15.67 11.28 15.62C11.5 15.55 11.68 15.39 12.03 15.07C13.11 14.09 14.73 12.59 15.36 11.78C16.34 10.51 16.18 8.71 14.91 7.65C13.64 6.59 11.99 6.89 10.99 8.06C9.99 6.89 8.32 6.58 7.07 7.65Z" stroke-opacity="1.000000" stroke-width="2.000000" stroke-linejoin="round" /></symbol><symbol viewBox="0 0 24 24" id="vk"><g clip-path="url(#vk_clip0_5092_944)"><path d="M11.2517 14.1644V7.38428H12.1524V10.8253V11.9386L13.2594 11.8195C14.4672 11.6896 15.5825 10.9635 16.4438 10.0565C17.1496 9.3132 17.7471 8.38535 18.141 7.38428H19.0126C18.3225 9.17751 16.9185 10.5163 15.8786 11.1175L14.2208 12.076L15.9547 12.8887C17.0028 13.3801 18.6201 14.5645 19.5729 16.616H18.4982C17.5829 14.5011 15.7167 12.8525 13.2514 12.6072L12.1524 12.4978V13.6023V16.5985C9.64626 16.4614 7.74083 15.5248 6.40807 13.9782C5.0945 12.4538 4.25748 10.2433 4.04736 7.38428H5.12707C5.4899 12.1573 7.77055 14.5749 10.0092 15.1346L11.2517 15.4452V14.1644Z" stroke-width="2" /></g><defs></defs></symbol><clipPath id="vk_clip0_5092_944"><rect width="24" height="24" /></clipPath><symbol viewBox="0 0 28 28" id="whatsapp"><g clip-path="url(#whatsapp_clip0_2949_3031)"><path d="M6.06851 0H21.9315C25.2807 0 28 2.71927 28 6.06851V21.9315C28 25.2807 25.2807 28 21.9315 28H6.06851C2.71927 28 0 25.2807 0 21.9315V6.06851C0 2.71927 2.71927 0 6.06851 0Z" /><path d="M13.9983 4.16992C8.57076 4.16992 4.16992 8.57043 4.16992 13.9989C4.16992 15.8563 4.68554 17.5924 5.58076 19.0744L4.35666 23.797L9.24791 22.6055C10.6562 23.3841 12.2757 23.828 13.9983 23.828C19.4278 23.828 23.8283 19.4271 23.8283 13.9989C23.8283 8.57076 19.4278 4.16992 13.9983 4.16992ZM13.9983 22.1813C12.3374 22.1813 10.7893 21.6828 9.49732 20.828L6.62782 21.5594L7.37476 18.7959C6.39522 17.4471 5.81692 15.7897 5.81692 13.9986C5.81692 9.48633 9.4873 5.81595 13.9983 5.81595C18.5093 5.81595 22.181 9.48633 22.181 13.9986C22.181 18.5109 18.5106 22.181 13.9983 22.181V22.1813Z" /><path d="M17.6931 16.454C17.5558 16.3865 17.4101 16.3309 17.2942 16.2699C16.962 16.0944 16.6299 15.919 16.2978 15.7436C16.1964 15.69 16.0891 15.635 15.9744 15.638C15.5357 15.6493 15.3312 16.2741 15.0446 16.5157C14.9274 16.6146 14.7913 16.7057 14.6379 16.7131C14.5119 16.7193 14.3911 16.6682 14.277 16.6143C13.7023 16.3432 13.1721 15.9781 12.7118 15.5401C12.3502 15.1963 12.0327 14.8086 11.7354 14.408C11.5991 14.2242 11.4624 14.0262 11.4376 13.7987C11.3765 13.2398 12.1709 13.044 12.1923 12.4819C12.2 12.2764 12.105 12.0829 12.0191 11.8962C11.8721 11.576 11.7464 11.2458 11.6434 10.9092C11.454 10.2905 11.0925 10.0243 10.4238 10.1733C9.59479 10.3584 9.15833 11.5201 9.13054 12.2606C9.08887 13.3694 9.85648 14.4717 9.96341 14.6258C10.4745 15.3611 10.9572 16.0806 11.6017 16.7144C12.6497 17.745 14.098 18.5808 15.5593 18.825C15.8416 18.8722 16.1305 18.8945 16.4141 18.856C16.9 18.7898 17.3542 18.5333 17.6734 18.1624C17.9668 17.8216 18.348 17.1838 18.0653 16.7425C17.9849 16.6168 17.844 16.5287 17.6931 16.4547V16.454Z" /></g><defs></defs></symbol><linearGradient id="whatsapp_paint0_linear_2949_3031" x1="13.9998" y1="-0.0510448" x2="13.9998" y2="27.8178" gradientUnits="userSpaceOnUse"><stop stop-color="#2AD846" /><stop offset="1" stop-color="#00AB24" /></linearGradient><clipPath id="whatsapp_clip0_2949_3031"><rect width="28" height="28" /></clipPath><symbol viewBox="0 0 10 10" id="whatsapp-close"><path d="M9 1L1 9" stroke-width="1.5" stroke-linecap="round" stroke-linejoin="round" /><path d="M9 9L0.999999 1" stroke-width="1.5" stroke-linecap="round" stroke-linejoin="round" /></symbol><symbol viewBox="0 0 22 22" id="why"><desc>Created with Pixso.</desc><defs></defs><path id="why_Icon" d="M18 5.09L19.74 5.82C20.24 6.02 20.63 6.42 20.84 6.92C21.05 7.41 21.05 7.97 20.84 8.47L20.12 10.22C19.91 10.72 19.91 11.28 20.12 11.77L20.84 13.52C20.94 13.76 20.99 14.03 20.99 14.29C20.99 14.56 20.94 14.83 20.84 15.07C20.74 15.32 20.59 15.54 20.4 15.73C20.21 15.92 19.99 16.07 19.74 16.17L18 16.9C17.5 17.1 17.1 17.5 16.89 18L16.17 19.74C15.97 20.24 15.57 20.63 15.07 20.84C14.57 21.05 14.01 21.05 13.52 20.84L11.77 20.12C11.27 19.91 10.71 19.91 10.22 20.12L8.47 20.84C7.97 21.05 7.42 21.05 6.92 20.84C6.42 20.63 6.02 20.24 5.82 19.74L5.09 18C4.89 17.5 4.49 17.1 4 16.89L2.25 16.17C1.75 15.97 1.36 15.57 1.15 15.07C0.94 14.58 0.94 14.02 1.15 13.52L1.87 11.77C2.08 11.28 2.08 10.72 1.87 10.22L1.15 8.47C1.05 8.22 1 7.96 1 7.69C1 7.43 1.05 7.16 1.15 6.92C1.25 6.67 1.4 6.44 1.59 6.26C1.78 6.07 2 5.92 2.25 5.82L3.99 5.09C4.49 4.89 4.89 4.49 5.09 4L5.82 2.25C6.02 1.75 6.42 1.36 6.92 1.15C7.42 0.94 7.97 0.94 8.47 1.15L10.22 1.87C10.71 2.08 11.27 2.08 11.77 1.87L13.52 1.15C14.02 0.94 14.58 0.94 15.07 1.15C15.57 1.36 15.97 1.75 16.17 2.25L16.9 4L16.9 3.99C17.1 4.49 17.5 4.89 18 5.09ZM8 11L10 13L14.5 8.5" stroke-opacity="1.000000" stroke-width="2.000000" stroke-linejoin="round" stroke-linecap="round" /></symbol><symbol viewBox="0 0 22 22" id="work"><desc>Created with Pixso.</desc><defs></defs><path id="work_Icon" d="M11 21C5.47 21 1 16.52 1 11C1 5.47 5.47 1 11 1C16.52 1 21 5.47 21 11C21 16.52 16.52 21 11 21ZM11 15L11 11M11 7L11.01 7" stroke-opacity="1.000000" stroke-width="2.000000" stroke-linejoin="round" /></symbol><symbol viewBox="0 0 24 24" id="youtube"><g clip-path="url(#youtube_clip0_5092_876)"><path d="M17 5H7C4.79086 5 3 6.79086 3 9V15C3 17.2091 4.79086 19 7 19H17C19.2091 19 21 17.2091 21 15V9C21 6.79086 19.2091 5 17 5Z" stroke-width="1.5" stroke-linecap="round" stroke-linejoin="round" /><path d="M10 9L15 12L10 15V9Z" stroke-width="1.5" stroke-linecap="round" stroke-linejoin="round" /></g><defs></defs></symbol><clipPath id="youtube_clip0_5092_876"><rect width="24" height="24" /></clipPath></defs></svg>