<svg width="14.429688" height="13.773438" viewBox="0 0 14.4297 13.7734" fill="none" xmlns="http://www.w3.org/2000/svg" xmlns:xlink="http://www.w3.org/1999/xlink">
	<desc>
			Created with Pixso.
	</desc>
	<defs>
		<linearGradient x1="-2.273405" y1="13.925783" x2="4.232738" y2="-6.074220" id="paint_linear_5180_9594_0" gradientUnits="userSpaceOnUse">
			<stop stop-color="#EBA40C"/>
			<stop offset="1.000000" stop-color="#FFCC00"/>
		</linearGradient>
	</defs>
	<path id="Star 1" d="M6.77 0.26L4.84 3.91C4.77 4.05 4.63 4.15 4.48 4.17L0.41 4.88C0.01 4.95 -0.14 5.43 0.14 5.72L3.02 8.68C3.12 8.8 3.17 8.95 3.15 9.1L2.56 13.19C2.51 13.59 2.92 13.89 3.28 13.71L6.99 11.89C7.13 11.82 7.29 11.82 7.43 11.89L11.14 13.71C11.5 13.89 11.91 13.59 11.85 13.19L11.27 9.1C11.25 8.95 11.29 8.8 11.4 8.68L14.28 5.72C14.56 5.43 14.41 4.95 14.01 4.88L9.94 4.17C9.78 4.15 9.65 4.05 9.58 3.91L7.65 0.26C7.46 -0.09 6.95 -0.09 6.77 0.26Z" fill="url(#paint_linear_5180_9594_0)" fill-opacity="1.000000" fill-rule="evenodd"/>
</svg>
