<svg width="80" height="80" viewBox="0 0 80 80" fill="none" xmlns="http://www.w3.org/2000/svg">
<path d="M9.54042 17.1866H14.8393C15.5788 17.1866 16.1796 16.5883 16.1796 15.8463C16.1796 15.1068 15.5788 14.5061 14.8393 14.5061H12.4364C19.2694 7.12499 29.0342 2.49147 39.8641 2.49147C55.0978 2.49147 68.2301 11.6508 74.0459 24.7448C74.3642 25.4604 75.245 25.7189 75.8912 25.2761C76.389 24.9363 76.5685 24.2877 76.3244 23.7372C70.1184 9.76725 56.1125 0 39.8641 0C28.455 0 18.1517 4.81781 10.8783 12.5268V10.0353C10.8783 9.29576 10.2776 8.69503 9.53803 8.69503C8.79848 8.69503 8.19775 9.29336 8.19775 10.0353V15.8463C8.19775 16.5859 8.79848 17.1866 9.53803 17.1866H9.54042Z" fill="#3B4B64"/>
<path d="M78.2893 28.5719C78.3611 28.682 78.4161 28.8016 78.4544 28.9333C79.3807 32.1475 79.9 35.4767 80.0005 38.8321C80.0221 39.5717 79.4405 40.1892 78.701 40.2107C77.9614 40.2322 77.3415 39.6531 77.3224 38.9111C77.2291 35.7806 76.7432 32.6717 75.8792 29.6752C75.6734 28.9644 76.085 28.2224 76.7959 28.0166C77.375 27.8491 77.9758 28.0932 78.2893 28.5719Z" fill="#3B4B64"/>
<path d="M79.6368 42.8792C79.7948 43.1234 79.8761 43.4201 79.8474 43.7337C79.5817 46.632 79.0002 49.5112 78.1218 52.2875C77.8992 52.9935 77.1453 53.3836 76.4393 53.1587C75.7356 52.9337 75.3431 52.1822 75.5681 51.4761C76.3914 48.8818 76.9323 46.194 77.1812 43.4872C77.2482 42.75 77.8992 42.2091 78.6364 42.2761C79.0624 42.3144 79.4214 42.549 79.6368 42.8792Z" fill="#3B4B64"/>
<path d="M57.495 58.13C67.036 48.589 67.036 33.12 57.495 23.579C47.954 14.038 32.485 14.038 22.944 23.579C13.403 33.12 13.403 48.589 22.944 58.13C32.485 67.671 47.954 67.671 57.495 58.13Z" fill="#FFD541"/>
<path d="M70.4607 62.6865H65.1618C64.4223 62.6865 63.8216 63.2848 63.8216 64.0268C63.8216 64.7687 64.4223 65.367 65.1618 65.367H67.5648C60.7294 72.7505 50.9645 77.3816 40.137 77.3816C24.9034 77.3816 11.7711 68.2223 5.95524 55.1283C5.63693 54.4127 4.75618 54.1542 4.10997 54.597C3.61216 54.9368 3.43266 55.5854 3.67678 56.1359C9.88273 70.1083 23.891 79.8755 40.137 79.8755C51.5461 79.8755 61.8495 75.0577 69.1228 67.3487V69.8402C69.1228 70.5797 69.7236 71.1805 70.4631 71.1805C71.2027 71.1805 71.8034 70.5821 71.8034 69.8402V64.0292C71.8034 63.2896 71.2027 62.6889 70.4631 62.6889L70.4607 62.6865Z" fill="#3B4B64"/>
<path d="M1.71182 51.3011C1.64002 51.191 1.58497 51.0713 1.54668 50.9397C0.620456 47.7278 0.1011 44.3987 0.000579528 41.0432C-0.0209606 40.3037 0.560623 39.6862 1.30017 39.6646C2.03971 39.6431 2.65959 40.2223 2.67873 40.9642C2.77207 44.0947 3.25792 47.2037 4.12192 50.2002C4.32775 50.911 3.91609 51.6529 3.20527 51.8587C2.62608 52.0263 2.02535 51.7822 1.71182 51.3035V51.3011Z" fill="#3B4B64"/>
<path d="M0.36194 36.9935C0.203979 36.7494 0.122606 36.4526 0.151326 36.1391C0.416987 33.2407 0.99857 30.3615 1.87693 27.5852C2.09951 26.8792 2.85341 26.4891 3.55945 26.7141C4.26309 26.939 4.6556 27.6906 4.43063 28.3966C3.60732 30.991 3.06642 33.6787 2.81751 36.3856C2.7505 37.1227 2.09951 37.6636 1.36236 37.5966C0.936343 37.5583 0.577341 37.3238 0.36194 36.9935Z" fill="#3B4B64"/>
<path d="M37.4253 37.2473C37.4253 32.6808 35.1827 29.8447 31.5735 29.8447C27.9644 29.8447 25.7529 32.6808 25.7529 37.2473C25.7529 41.8139 27.9835 44.7385 31.5735 44.7385C35.1636 44.7385 37.4253 41.8689 37.4253 37.2473ZM33.9454 37.2473C33.9454 40.0547 33.0598 41.7301 31.5735 41.7301C30.0873 41.7301 29.2329 40.0547 29.2329 37.2473C29.2329 34.44 30.0849 32.8244 31.5735 32.8244C33.7132 32.8244 33.9454 35.9166 33.9454 37.2473Z" fill="#3B4B64"/>
<path d="M47.4295 38.5684C43.8203 38.5684 41.5778 41.4045 41.5778 45.971C41.5778 50.5375 43.8203 53.431 47.4295 53.431C51.0387 53.431 53.2501 50.5734 53.2501 45.971C53.2501 41.3686 51.0195 38.5684 47.4295 38.5684ZM49.7702 45.971C49.7702 48.776 48.8942 50.4537 47.4295 50.4537C45.9648 50.4537 45.0577 48.7784 45.0577 45.971C45.0577 44.6403 45.2874 41.5481 47.4295 41.5481C48.9182 41.5481 49.7702 43.1588 49.7702 45.971Z" fill="#3B4B64"/>
<path d="M47.293 30.1774C47.1733 29.9716 46.9532 29.8447 46.7138 29.8447H44.7896C44.5478 29.8447 44.3253 29.9764 44.2056 30.187L31.6692 52.4331C31.552 52.639 31.5544 52.8927 31.674 53.0985C31.7937 53.3043 32.0139 53.4312 32.2532 53.4312H34.1464C34.3881 53.4312 34.6107 53.3019 34.7303 53.0913L47.2978 30.8451C47.4151 30.6369 47.4127 30.3832 47.293 30.1774Z" fill="#3B4B64"/>
</svg>
