<svg width="49" height="50" viewBox="0 0 49 50" fill="none" xmlns="http://www.w3.org/2000/svg">
<g clip-path="url(#clip0_2949_2527)">
<path d="M47.492 4.36799H40.13V0.69025C40.13 0.31277 39.8174 0 39.4401 0H32.3907C32.0134 0 31.7008 0.31277 31.7008 0.69025V4.36799H16.9768V0.69025C16.9768 0.31277 16.6642 0 16.287 0H9.22676C8.8495 0 8.53691 0.31277 8.53691 0.69025V4.36799H0.689852C0.312589 4.36799 0 4.68076 0 5.05824V49.3098C0 49.6872 0.312589 50 0.689852 50H47.492C47.8692 50 48.1818 49.6872 48.1818 49.3098V5.05824C48.1818 4.68076 47.8692 4.36799 47.492 4.36799ZM33.0805 1.3805H38.7503V10.893H33.0805V1.3805ZM9.90584 1.3805H15.5971V10.893H9.90584V1.3805ZM1.3797 5.74849H8.52613V11.594C8.52613 11.9715 8.83872 12.2843 9.21599 12.2843H16.2762C16.6534 12.2843 16.966 11.9715 16.966 11.594V5.74849H31.7008V11.594C31.7008 11.9715 32.0134 12.2843 32.3907 12.2843H39.4401C39.8174 12.2843 40.13 11.9715 40.13 11.594V5.74849H46.8021V17.4396H1.3797V5.74849ZM1.3797 48.6195V18.8201H46.8021V48.6195H1.3797Z" fill="#00ABDF" stroke="#00ABDF"/>
<path d="M22.7305 37.7812L18.1914 33.2422C17.918 32.9688 17.918 32.5039 18.1914 32.2305L19.1758 31.2461C19.4492 30.9727 19.8867 30.9727 20.1602 31.2461L23.25 34.3086L29.8125 27.7461C30.0859 27.4727 30.5234 27.4727 30.7969 27.7461L31.7812 28.7305C32.0547 29.0039 32.0547 29.4688 31.7812 29.7422L23.7422 37.7812C23.4688 38.0547 23.0039 38.0547 22.7305 37.7812Z" fill="#00ABDF"/>
</g>
<defs>
<clipPath id="clip0_2949_2527">
<rect width="48.1818" height="50" fill="white"/>
</clipPath>
</defs>
</svg>
