<svg width="18.164062" height="15.519531" viewBox="0 0 18.1641 15.5195" fill="none" xmlns="http://www.w3.org/2000/svg" xmlns:xlink="http://www.w3.org/1999/xlink">
	<desc>
			Created with Pixso.
	</desc>
	<defs/>
	<path id="Icon" d="M0.75 4.86L8.78 8.88C8.89 8.94 8.94 8.96 9 8.97C9.05 8.98 9.1 8.98 9.16 8.97C9.21 8.96 9.27 8.94 9.38 8.88L17.41 4.86L9.38 0.85C9.27 0.79 9.21 0.76 9.16 0.75C9.1 0.74 9.05 0.74 9 0.75C8.94 0.76 8.89 0.79 8.78 0.85L0.75 4.86ZM3.25 6.11L3.25 11.12C3.25 11.42 3.25 11.57 3.29 11.7C3.33 11.82 3.4 11.92 3.48 12.01C3.58 12.11 3.71 12.18 3.98 12.32L8.48 14.57C8.7 14.67 8.81 14.73 8.92 14.75C9.03 14.77 9.13 14.77 9.23 14.75C9.35 14.73 9.46 14.67 9.67 14.57L14.17 12.32C14.44 12.18 14.58 12.11 14.67 12.01C14.76 11.92 14.83 11.82 14.87 11.7C14.91 11.57 14.91 11.42 14.91 11.12L14.91 6.11" stroke="#FFFFFF" stroke-opacity="1.000000" stroke-width="1.500000" stroke-linejoin="round" stroke-linecap="round"/>
</svg>
