<svg width="22.000000" height="18.823730" viewBox="0 0 22 18.8237" fill="none" xmlns="http://www.w3.org/2000/svg" xmlns:xlink="http://www.w3.org/1999/xlink">
	<desc>
			Created with Pixso.
	</desc>
	<defs/>
	<path id="Icon" d="M1 5.94L10.64 10.76C10.77 10.82 10.83 10.86 10.9 10.87C10.96 10.88 11.03 10.88 11.09 10.87C11.16 10.86 11.22 10.82 11.35 10.76L21 5.94L11.35 1.12C11.22 1.05 11.16 1.02 11.09 1C11.03 0.99 10.96 0.99 10.9 1C10.83 1.02 10.77 1.05 10.64 1.12L1 5.94ZM4 7.44L4 13.45C4 13.81 4 13.99 4.05 14.14C4.1 14.28 4.18 14.41 4.28 14.52C4.4 14.64 4.56 14.72 4.88 14.88L10.28 17.58C10.54 17.71 10.67 17.78 10.81 17.8C10.93 17.82 11.06 17.82 11.18 17.8C11.32 17.78 11.45 17.71 11.71 17.58L17.11 14.88C17.43 14.72 17.59 14.64 17.71 14.52C17.81 14.41 17.89 14.28 17.94 14.14C18 13.99 18 13.81 18 13.45L18 7.44" stroke="#00ABDF" stroke-opacity="1.000000" stroke-width="2.000000" stroke-linejoin="round" stroke-linecap="round"/>
</svg>
