<svg width="22.000000" height="20.000000" viewBox="0 0 22 20" fill="none" xmlns="http://www.w3.org/2000/svg" xmlns:xlink="http://www.w3.org/1999/xlink">
	<desc>
			Created with Pixso.
	</desc>
	<defs/>
	<path id="Icon" d="M2 19L2 10.6C2 10.04 2 9.75 2.1 9.54C2.2 9.35 2.35 9.2 2.54 9.1C2.75 9 3.03 9 3.59 9L6.5 9M15.5 9L18.4 9C18.96 9 19.24 9 19.45 9.1C19.64 9.2 19.79 9.35 19.89 9.54C20 9.75 20 10.04 20 10.6L20 19M6.5 19L6.5 4.2C6.5 3.08 6.5 2.52 6.71 2.09C6.9 1.71 7.21 1.4 7.59 1.21C8.01 1 8.57 1 9.69 1L12.3 1C13.42 1 13.98 1 14.4 1.21C14.78 1.4 15.09 1.71 15.28 2.09C15.5 2.52 15.5 3.08 15.5 4.2L15.5 19M21 19L1 19M10 5L12 5M10 9L12 9M10 13L12 13" stroke="#00ABDF" stroke-opacity="1.000000" stroke-width="2.000000" stroke-linejoin="round"/>
</svg>
