<svg width="18" height="28" viewBox="0 0 18 28" fill="none" xmlns="http://www.w3.org/2000/svg">
<g clip-path="url(#clip0_2949_3011)">
<path d="M8.99651 0C6.51688 0 4.26077 1.01281 2.63329 2.63329C1.01281 4.26077 0 6.51688 0 8.99651C0 11.4761 1.01281 13.7392 2.63329 15.3597C3.98137 16.7078 5.7695 17.6228 7.7532 17.9022V21.1152H5.13388C4.39348 21.1152 3.79977 21.7159 3.79977 22.4494C3.79977 23.1828 4.40047 23.7835 5.13388 23.7835H7.7532V26.4028C7.7532 27.1432 8.3539 27.7369 9.08731 27.7369C9.82072 27.7369 10.4214 27.1362 10.4214 26.4028V23.7835H13.0338C13.7742 23.7835 14.3679 23.1828 14.3679 22.4494C14.3679 21.7159 13.7672 21.1152 13.0338 21.1152H10.4214V17.8743C12.3283 17.5669 14.0536 16.6729 15.3527 15.3597C16.9802 13.7392 17.986 11.4761 17.986 8.99651C17.986 6.51688 16.9732 4.25378 15.3527 2.63329C13.7392 1.01281 11.4761 0 8.99651 0ZM13.1525 13.1595C12.0838 14.2282 10.624 14.8778 8.99651 14.8847C7.36903 14.8847 5.9092 14.2282 4.84051 13.1595C3.77183 12.0908 3.11525 10.631 3.11525 8.99651C3.11525 7.36903 3.77183 5.9092 4.84051 4.84051C5.9092 3.77183 7.36903 3.12224 8.99651 3.11525C10.624 3.11525 12.0838 3.77183 13.1525 4.84051C14.2212 5.9092 14.8778 7.36903 14.8778 8.99651C14.8778 10.624 14.2212 12.0838 13.1525 13.1595Z" fill="white"/>
</g>
<defs>
<clipPath id="clip0_2949_3011">
<rect width="18" height="27.7369" fill="white"/>
</clipPath>
</defs>
</svg>
