<svg width="22" height="30" viewBox="0 0 22 30" fill="none" xmlns="http://www.w3.org/2000/svg">
<g clip-path="url(#clip0_2949_3004)">
<path d="M15.38 9.60952C15.38 7.16116 13.4151 5.17188 10.9967 5.17188C8.57824 5.17188 6.61328 7.16116 6.61328 9.60952C6.61328 12.0579 8.57824 14.0472 10.9967 14.0472C13.4151 14.0472 15.38 12.0579 15.38 9.60952ZM13.4604 9.60952C13.4604 10.9791 12.357 12.0961 11.0042 12.0961C9.65141 12.0961 8.54801 10.9791 8.54801 9.60952C8.54801 8.23997 9.65141 7.12291 11.0042 7.12291C12.357 7.12291 13.4604 8.23997 13.4604 9.60952Z" fill="white"/>
<path d="M21.0404 17.8885C17.3675 17.8885 14.0044 19.7171 11.9638 22.7393V19.0897C12.901 18.8372 13.6945 18.2251 14.1858 17.3835C15.4328 17.7048 16.8007 17.3376 17.7151 16.4041C18.6598 15.4478 19.015 14.1088 18.6825 12.8311C19.8086 12.1654 20.4963 10.9566 20.4963 9.60996C20.4963 8.26336 19.8086 7.05448 18.6825 6.38884C19.015 5.1111 18.6598 3.76451 17.7151 2.81577C16.7704 1.86703 15.4328 1.51508 14.1858 1.84408C13.5283 0.704064 12.3342 0.0078125 11.004 0.0078125C9.67391 0.0078125 8.47982 0.704064 7.82231 1.84408C6.57532 1.51508 5.2074 1.88999 4.29294 2.81577C3.34825 3.77216 2.99304 5.1111 3.32557 6.38884C2.1995 7.05448 1.51176 8.26336 1.51176 9.60996C1.51176 10.9566 2.1995 12.1654 3.32557 12.8311C2.99304 14.1088 3.34825 15.4554 4.29294 16.4041C5.21496 17.3376 6.58287 17.7048 7.82231 17.3835C8.30599 18.2251 9.10709 18.8372 10.0442 19.0897V22.7393C8.00369 19.7171 4.64058 17.8885 0.96762 17.8885C0.438592 17.8885 0.0078125 18.3246 0.0078125 18.8601C0.0078125 25.004 4.94289 30.0002 11.0116 30.0002C17.0803 30.0002 22.0154 25.004 22.0154 18.8601C22.0154 18.3246 21.5846 17.8885 21.0556 17.8885H21.0404ZM9.98377 27.9956C5.78933 27.5212 2.4489 24.1394 1.98033 19.893C6.17477 20.3674 9.5152 23.7492 9.98377 27.9956ZM8.7141 15.2106C8.59318 15.157 8.47226 15.1341 8.34378 15.1341C8.1624 15.1341 7.98857 15.1876 7.83742 15.2794C7.15725 15.7079 6.22011 15.6008 5.6533 15.0269C5.07136 14.4378 4.96556 13.5273 5.4039 12.8158C5.57016 12.548 5.59283 12.219 5.47947 11.9282C5.35855 11.6375 5.10915 11.4233 4.80685 11.3544C3.99819 11.1631 3.43894 10.4516 3.43894 9.60996C3.43894 8.76833 4.00575 8.05678 4.80685 7.8655C5.10915 7.79664 5.35855 7.58241 5.47947 7.29167C5.60039 7.00093 5.57016 6.67193 5.4039 6.40414C4.96556 5.69259 5.07136 4.7821 5.6533 4.19297C6.22011 3.61914 7.15725 3.51202 7.83742 3.94048C8.10194 4.10881 8.42691 4.13176 8.7141 4.00934C9.00129 3.88692 9.2129 3.63444 9.28091 3.32839C9.46985 2.50973 10.1727 1.94354 11.004 1.94354C11.8354 1.94354 12.5382 2.51738 12.7272 3.32839C12.7952 3.63444 13.0068 3.88692 13.294 4.00934C13.5812 4.13176 13.9061 4.10116 14.1706 3.93283C14.8508 3.50437 15.788 3.61148 16.3548 4.18532C16.9367 4.77445 17.0425 5.68494 16.6042 6.39649C16.4379 6.66428 16.4152 6.99328 16.5286 7.28402C16.6495 7.57476 16.8989 7.78899 17.2012 7.85785C18.0099 8.04913 18.5691 8.76068 18.5691 9.6023C18.5691 10.4439 18.0023 11.1555 17.2012 11.3468C16.8989 11.4156 16.6495 11.6298 16.5286 11.9206C16.4077 12.2113 16.4379 12.5403 16.6042 12.8081C17.0425 13.5197 16.9367 14.4302 16.3548 15.0193C15.788 15.5931 14.8433 15.7002 14.1706 15.2718C13.9061 15.1035 13.5812 15.0805 13.294 15.2029C13.0068 15.3253 12.7952 15.5778 12.7272 15.8839C12.5382 16.7025 11.8354 17.2687 11.004 17.2687C10.1727 17.2687 9.46985 16.6949 9.28091 15.8839C9.2129 15.5778 8.99373 15.3253 8.7141 15.2029V15.2106ZM12.0243 27.9956C12.4929 23.7492 15.8333 20.3674 20.0277 19.893C19.5592 24.1394 16.2187 27.5212 12.0243 27.9956Z" fill="white"/>
</g>
<defs>
<clipPath id="clip0_2949_3004">
<rect width="22" height="30" fill="white"/>
</clipPath>
</defs>
</svg>
