<svg width="70.000000" height="70.000000" viewBox="0 0 70 70" fill="none" xmlns="http://www.w3.org/2000/svg" xmlns:xlink="http://www.w3.org/1999/xlink">
	<desc>
			Created with Pixso.
	</desc>
	<defs>
		<clipPath id="clip3370_2171">
			<rect id="Frame 6501" rx="-0.500000" width="69.000000" height="69.000000" transform="translate(0.500000 0.500000)" fill="white" fill-opacity="0"/>
		</clipPath>
	</defs>
	<g clip-path="url(#clip3370_2171)">
		<g style="mix-blend-mode:normal">
			<path id="Vector" d="M23.74 46.98C23.74 46.98 37.64 50.16 44.22 43.67C50.81 37.17 47.58 23.47 47.58 23.47C47.58 23.47 33.67 20.28 27.09 26.78C20.51 33.27 23.74 46.98 23.74 46.98Z" stroke="#FFFFFF" stroke-opacity="1.000000" stroke-width="2.000000"/>
			<path id="Vector" d="M29.16 51.78C34.25 51.77 42.79 51.03 47.24 46.64C51.79 42.15 52.47 35.02 52.45 31.04" stroke="#FFFFFF" stroke-opacity="1.000000" stroke-width="2.000000" stroke-linecap="round"/>
			<path id="Vector" d="M49.43 5.12C44.89 12.04 47.58 23.48 47.58 23.48C47.58 23.48 59.11 26.12 66.15 21.68" stroke="#FFFFFF" stroke-opacity="1.000000" stroke-width="2.000000" stroke-linecap="round"/>
			<path id="Vector" d="M66.14 21.68C59.11 26.12 47.58 23.48 47.58 23.48C47.58 23.48 44.88 12.05 49.42 5.12" stroke="#FFFFFF" stroke-opacity="1.000000" stroke-width="2.000000" stroke-linecap="round"/>
			<path id="Vector" d="M43.06 19.56C42.56 15.75 42.21 8.75 45.37 3.91" stroke="#FFFFFF" stroke-opacity="1.000000" stroke-width="2.000000" stroke-linecap="round"/>
			<path id="Vector" d="M19.78 42.52C15.92 42.03 8.81 41.69 3.91 44.8" stroke="#FFFFFF" stroke-opacity="1.000000" stroke-width="2.000000" stroke-linecap="round"/>
			<path id="Vector" d="M21.93 65.28C26.42 58.34 23.75 46.97 23.75 46.97C23.75 46.97 12.16 44.32 5.13 48.8" stroke="#FFFFFF" stroke-opacity="1.000000" stroke-width="2.000000" stroke-linecap="round"/>
			<path id="Vector" d="M39.31 38.64L32.21 31.64" stroke="#FFFFFF" stroke-opacity="1.000000" stroke-width="2.000000" stroke-linecap="round"/>
			<path id="Vector" d="M41.14 34.21L36.7 29.83" stroke="#FFFFFF" stroke-opacity="1.000000" stroke-width="2.000000" stroke-linecap="round"/>
			<path id="Vector" d="M34.81 40.44L30.38 36.07" stroke="#FFFFFF" stroke-opacity="1.000000" stroke-width="2.000000" stroke-linecap="round"/>
			<path id="Vector" d="M62.59 15.65L55.5 8.65" stroke="#FFFFFF" stroke-opacity="1.000000" stroke-width="2.000000" stroke-linecap="round"/>
			<path id="Vector" d="M58.11 17.46L53.67 13.08" stroke="#FFFFFF" stroke-opacity="1.000000" stroke-width="2.000000" stroke-linecap="round"/>
			<path id="Vector" d="M16.01 61.61L8.91 54.61" stroke="#FFFFFF" stroke-opacity="1.000000" stroke-width="2.000000" stroke-linecap="round"/>
			<path id="Vector" d="M17.82 57.18L13.4 52.8" stroke="#FFFFFF" stroke-opacity="1.000000" stroke-width="2.000000" stroke-linecap="round"/>
		</g>
	</g>
</svg>
