<svg width="200.000000" height="61.709473" viewBox="0 0 200 61.7095" fill="none" xmlns="http://www.w3.org/2000/svg" xmlns:xlink="http://www.w3.org/1999/xlink">
	<desc>
			Created with Pixso.
	</desc>
	<defs/>
	<path id="Vector" d="M56.06 23.19L47.74 23.19L47.74 19.5L69.54 19.5L69.54 23.19L61.37 23.19L61.37 42.2L56.06 42.2L56.06 23.19ZM5.37 30.85C5.37 32.03 5.45 33.06 5.67 34.02C5.89 34.98 6.26 35.79 6.7 36.45C7.21 37.11 7.8 37.7 8.62 38.07C9.43 38.44 10.46 38.66 11.71 38.66C12.89 38.66 14.07 38.51 15.1 38.29C16.13 38.07 17.23 37.7 18.41 37.26L19.59 40.65C18.49 41.24 17.16 41.68 15.69 41.97C14.21 42.34 12.59 42.49 10.97 42.49C8.84 42.49 7.07 42.2 5.67 41.61C4.27 41.02 3.16 40.21 2.28 39.17C1.47 38.14 0.81 36.96 0.51 35.56C0.14 34.16 0 32.69 0 31.07C0 29.82 0.14 28.42 0.44 27.02C0.73 25.62 1.32 24.29 2.13 23.11C2.94 21.93 4.12 20.9 5.59 20.17C7.07 19.36 8.98 18.99 11.27 18.99C12.3 18.99 13.4 19.06 14.66 19.21C15.83 19.36 17.09 19.65 18.41 20.09L17.46 23.7C16.35 23.33 15.32 23.19 14.44 23.04C13.55 22.97 12.74 22.89 12 22.89C9.87 22.89 8.25 23.56 7.14 24.96C5.96 26.58 5.37 28.42 5.37 30.85ZM88.7 42.2L88.7 26.72L88.48 26.72L77.72 42.2L72.71 42.2L72.71 19.5L78.02 19.5L78.02 34.83L78.24 34.83L88.84 19.5L93.93 19.5L93.93 42.2L88.7 42.2ZM39.26 42.2L39.26 26.72L39.04 26.72L28.29 42.2L23.28 42.2L23.28 19.5L28.58 19.5L28.58 34.83L28.8 34.83L39.41 19.5L44.49 19.5L44.49 42.2L39.26 42.2Z" fill="#FFFFFF" fill-opacity="1.000000" fill-rule="nonzero"/>
	<path id="Vector" d="M155.96 31.73L155.96 38.44L161.71 38.44C162.67 38.44 163.55 38.14 164.21 37.55C164.95 36.96 165.32 36.08 165.32 34.98C165.32 34.39 165.25 33.87 165.02 33.5C164.8 33.06 164.51 32.77 164.14 32.47C163.77 32.18 163.33 32.03 162.89 31.88C162.45 31.73 161.93 31.73 161.34 31.73L155.96 31.73ZM150.66 19.5L168.27 19.5L168.27 23.19L155.96 23.19L155.96 28.35L162.3 28.35C163.55 28.35 164.66 28.49 165.69 28.79C166.72 29.08 167.6 29.52 168.34 30.04C169.08 30.63 169.67 31.29 170.03 32.1C170.48 32.91 170.62 33.94 170.62 35.05C170.62 36.15 170.48 37.11 170.11 38C169.74 38.88 169.22 39.62 168.56 40.21C167.9 40.8 167.09 41.31 166.13 41.61C165.17 41.9 164.14 42.12 162.96 42.12L150.66 42.12L150.66 19.5ZM113.89 42.2L113.89 23.19L107.12 23.19L106.97 25.55C106.82 28.05 106.6 30.26 106.45 32.32C106.31 34.39 105.94 36.15 105.35 37.7C104.83 39.25 103.95 40.5 102.84 41.46C101.74 42.42 100.12 43.15 98.13 43.52L96.73 40.06C97.98 39.62 98.94 39.03 99.68 38.36C100.34 37.7 100.85 36.82 101.22 35.64C101.59 34.53 101.81 33.13 101.89 31.44C102.03 29.75 102.11 27.68 102.25 25.25L102.55 19.43L119.2 19.43L119.2 42.12L113.89 42.2ZM132.9 32.54C131.43 32.62 130.32 32.91 129.66 33.43C129 33.94 128.63 34.61 128.63 35.49C128.63 36.45 128.92 37.26 129.59 37.7C130.18 38.22 131.21 38.44 132.61 38.44C133.57 38.44 134.52 38.22 135.56 37.85C136.59 37.48 137.62 36.96 138.58 36.3L138.58 32.18L132.9 32.54ZM143.66 38.51L146.75 38.51L147.05 41.24C146.39 41.61 144.25 42.64 142.18 42.64C139.61 42.64 138.94 41.46 138.8 39.84L138.58 39.84C137.69 40.58 136.95 41.02 136.14 41.39C135.33 41.75 134.52 42.05 133.79 42.27C133.05 42.49 132.39 42.56 131.87 42.56C131.28 42.56 130.84 42.64 130.47 42.64C129.07 42.64 127.89 42.42 126.93 41.97C125.98 41.53 125.24 41.02 124.72 40.35C124.21 39.69 123.84 38.95 123.62 38.22C123.4 37.48 123.32 36.74 123.32 36.08C123.32 34.98 123.55 34.02 124.06 33.21C124.58 32.4 125.24 31.66 126.05 31.07C126.93 30.48 127.89 30.04 129.07 29.75C130.18 29.45 131.43 29.23 132.75 29.16L138.58 28.86L138.58 27.46C138.58 25.77 138.21 24.59 137.54 23.92C136.88 23.26 135.63 22.89 133.71 22.89C132.53 22.89 131.28 22.97 129.96 23.19C128.63 23.41 127.38 23.7 126.2 24.07C126.05 23.56 125.39 21.35 125.24 20.83C126.64 20.24 128.19 19.8 129.96 19.43C131.72 19.14 133.42 18.91 134.97 18.91C136.29 18.91 137.47 19.06 138.58 19.28C139.68 19.58 140.56 19.95 141.3 20.61C142.04 21.2 142.63 22.01 143 22.97C143.44 23.92 143.59 25.18 143.59 26.58L143.59 38.51L143.66 38.51Z" fill="#FFFFFF" fill-opacity="1.000000" fill-rule="nonzero"/>
	<path id="Vector" d="M196.26 35.49C193.61 36.08 190.96 34.53 190.29 31.96C189.63 29.38 191.25 26.8 193.9 26.14C196.56 25.55 199.21 27.09 199.87 29.67C200.46 32.32 198.91 34.9 196.26 35.49Z" fill="#FFFFFF" fill-opacity="1.000000" fill-rule="nonzero"/>
	<path id="Vector" d="M185.8 10.59C184.11 12.14 184.11 14.72 185.73 16.34C187.35 17.96 189.93 18.03 191.62 16.48C193.24 14.94 193.31 12.36 191.69 10.74C190.15 9.12 187.49 9.04 185.8 10.59Z" fill="#FFFFFF" fill-opacity="1.000000" fill-rule="nonzero"/>
	<path id="Vector" d="M170.77 2.41C170.25 4.18 171.29 6.1 173.13 6.61C174.97 7.13 176.88 6.1 177.4 4.33C177.92 2.56 176.88 0.72 175.04 0.13C173.2 -0.39 171.29 0.64 170.77 2.41Z" fill="#FFFFFF" fill-opacity="1.000000" fill-rule="nonzero"/>
	<path id="Vector" d="M185.8 51.04C184.11 49.49 184.11 46.91 185.73 45.29C187.35 43.67 189.93 43.6 191.62 45.14C193.24 46.69 193.31 49.27 191.69 50.89C190.15 52.58 187.49 52.66 185.8 51.04Z" fill="#FFFFFF" fill-opacity="1.000000" fill-rule="nonzero"/>
	<path id="Vector" d="M170.77 59.29C170.25 57.52 171.29 55.6 173.13 55.09C174.97 54.57 176.88 55.6 177.4 57.37C177.92 59.14 176.88 60.98 175.04 61.57C173.2 62.09 171.29 61.06 170.77 59.29Z" fill="#FFFFFF" fill-opacity="1.000000" fill-rule="nonzero"/>
</svg>
