<svg width="23" height="23" viewBox="0 0 23 23" fill="none" xmlns="http://www.w3.org/2000/svg">
<g clip-path="url(#clip0_2949_3018)">
<path d="M13.4659 1.40846C13.4659 2.19012 14.0932 2.81693 14.8592 2.81693H18.2147L15.1072 5.95832C13.5243 4.73421 11.5401 3.98942 9.3955 3.98942C6.8059 3.98942 4.44244 5.05867 2.75008 6.76948C1.05772 8.49503 0 10.8769 0 13.4947C0 16.1125 1.05772 18.5018 2.75008 20.2126C4.44244 21.9307 6.8059 23 9.3955 22.9926C11.9851 22.9926 14.3486 21.9234 16.0409 20.2126C17.7406 18.5018 18.791 16.1125 18.791 13.4947C18.791 11.4447 18.1418 9.54216 17.0403 7.99359L20.1989 4.7932V8.22219C20.1989 9.00385 20.8262 9.63065 21.5921 9.63065C22.3581 9.63065 22.9854 8.99647 22.9854 8.22219V0H14.8446C14.0714 0 13.4513 0.634178 13.4513 1.40846H13.4659ZM13.7431 17.8823C12.627 19.0106 11.1024 19.7037 9.3955 19.7037C7.69585 19.7037 6.17127 19.0106 5.05519 17.8823C3.93911 16.7541 3.25341 15.2129 3.25341 13.4947C3.25341 11.7765 3.93911 10.2353 5.05519 9.10709C6.17127 7.97884 7.69585 7.29304 9.3955 7.28567C11.0951 7.28567 12.6197 7.97884 13.7431 9.10709C14.8592 10.2353 15.5376 11.7765 15.5449 13.4947C15.5449 15.2129 14.8592 16.7541 13.7431 17.8823Z" fill="white"/>
</g>
<defs>
<clipPath id="clip0_2949_3018">
<rect width="23" height="23" fill="white"/>
</clipPath>
</defs>
</svg>
