<svg width="70.000000" height="70.000000" viewBox="0 0 70 70" fill="none" xmlns="http://www.w3.org/2000/svg" xmlns:xlink="http://www.w3.org/1999/xlink">
	<desc>
			Created with Pixso.
	</desc>
	<defs>
		<clipPath id="clip3370_2154">
			<rect id="Frame 6502" rx="-0.500000" width="69.000000" height="69.000000" transform="translate(0.500000 0.500000)" fill="white" fill-opacity="0"/>
		</clipPath>
	</defs>
	<g clip-path="url(#clip3370_2154)">
		<path id="Vector" d="M49.48 42.34L42.76 42.34" stroke="#FFFFFF" stroke-opacity="1.000000" stroke-width="2.000000" stroke-linejoin="round" stroke-linecap="round"/>
		<path id="Vector" d="M49.48 50.08L42.76 50.08" stroke="#FFFFFF" stroke-opacity="1.000000" stroke-width="2.000000" stroke-linejoin="round" stroke-linecap="round"/>
		<path id="Vector" d="M49.48 26.87L42.76 26.87" stroke="#FFFFFF" stroke-opacity="1.000000" stroke-width="2.000000" stroke-linejoin="round" stroke-linecap="round"/>
		<path id="Vector" d="M49.48 34.6L42.76 34.6" stroke="#FFFFFF" stroke-opacity="1.000000" stroke-width="2.000000" stroke-linejoin="round" stroke-linecap="round"/>
		<path id="Vector" d="M29.88 15.33C28.65 15.33 27.66 14.33 27.66 13.11C27.66 11.88 28.65 10.88 29.88 10.88L52.77 10.88C54 10.88 55 11.88 55 13.11C55 14.33 54 15.33 52.77 15.33L49.48 15.33C49.48 25.23 49.48 47.39 49.48 54.7C49.48 59.72 46.53 63.79 41.33 63.79C36.12 63.79 33.18 59.72 33.18 54.7C33.18 49.39 33.18 19.52 33.18 15.33L33.17 15.33L29.88 15.33Z" stroke="#FFFFFF" stroke-opacity="1.000000" stroke-width="2.000000" stroke-linejoin="round"/>
		<path id="Vector" d="M49.48 15.33L44.77 15.33" stroke="#FFFFFF" stroke-opacity="1.000000" stroke-width="2.000000" stroke-linejoin="round" stroke-linecap="round"/>
		<path id="Vector" d="M33.87 10.51L33.87 8.43C33.87 7.51 34.62 6.76 35.54 6.76L47.12 6.76C48.04 6.76 48.79 7.51 48.79 8.43L48.79 10.51" stroke="#FFFFFF" stroke-opacity="1.000000" stroke-width="2.000000" stroke-linejoin="round" stroke-linecap="round"/>
		<path id="Vector" d="M19.18 6.76L19.18 47.03" stroke="#FFFFFF" stroke-opacity="1.000000" stroke-width="2.000000" stroke-linejoin="round" stroke-linecap="round"/>
		<path id="Vector" d="M15.58 54.38C14.72 56.65 14.8 59.17 15.88 61.33C17.24 64.02 19.09 63.75 19.18 63.79C19.26 63.75 21.11 64.02 22.47 61.33C23.55 59.17 23.63 56.65 22.77 54.38C21.48 50.97 19.18 47.03 19.18 47.03C19.18 47.03 16.87 50.97 15.58 54.38Z" stroke="#FFFFFF" stroke-opacity="1.000000" stroke-width="2.000000" stroke-linejoin="round"/>
	</g>
</svg>
