<svg width="9" height="10" viewBox="0 0 9 10" fill="none" xmlns="http://www.w3.org/2000/svg">
<g clip-path="url(#clip0_2949_3771)">
<path d="M2.00134 0L2.11709 0.0142208C2.23779 0.0345212 2.35228 0.0812894 2.45206 0.151047C2.55184 0.220805 2.63435 0.311763 2.69346 0.417163C2.88857 0.740155 3.05015 1.0816 3.17578 1.43636C3.25777 1.65442 3.33494 1.87722 3.40005 2.10002C3.42938 2.20813 3.44078 2.32018 3.43381 2.43186C3.42937 2.51998 3.40551 2.60611 3.36387 2.68427C3.32223 2.76244 3.26381 2.83077 3.19266 2.88457C3.02703 3.01588 2.84659 3.12802 2.65487 3.21878C2.50053 3.29936 2.34619 3.37995 2.19426 3.4558C2.16521 3.46923 2.13917 3.48822 2.11768 3.51167C2.09619 3.53512 2.07969 3.56255 2.06913 3.59235C2.05857 3.62216 2.05418 3.65375 2.0562 3.68524C2.05823 3.71674 2.06663 3.74751 2.08092 3.77577C2.54285 4.77048 3.16408 5.68595 3.92095 6.48732C4.31514 6.91429 4.74777 7.30538 5.21356 7.65584C5.24075 7.68175 5.27378 7.701 5.30995 7.71203C5.34613 7.72306 5.38443 7.72555 5.42177 7.71932C5.45911 7.71309 5.49444 7.6983 5.52488 7.67615C5.55532 7.654 5.58003 7.62512 5.597 7.59184C5.7511 7.33703 5.94291 7.10618 6.16613 6.90685C6.3084 6.77516 6.48712 6.68775 6.6798 6.65561C6.79831 6.63588 6.92013 6.65157 7.02947 6.70064C7.64509 6.97912 8.20975 7.3555 8.7007 7.81464C8.7709 7.88643 8.8324 7.96597 8.88398 8.05166C8.95349 8.15329 8.99512 8.27085 9.00484 8.39293C9.01456 8.51502 8.99203 8.6375 8.93944 8.74851C8.82898 8.98763 8.66394 9.19851 8.45713 9.36478C7.95393 9.80642 7.29312 10.034 6.61951 9.99763C6.12236 9.96432 5.63699 9.83377 5.19185 9.61365C4.10083 9.10669 3.13048 8.3799 2.34378 7.48044C1.76841 6.84698 1.27435 6.14648 0.87272 5.39465C0.55293 4.78602 0.309973 4.14128 0.149247 3.47475C0.0670217 3.14963 0.0217294 2.81655 0.0141997 2.48162C0.00198606 1.89778 0.202079 1.32881 0.578508 0.876988C0.834564 0.552212 1.16509 0.291507 1.54314 0.116139C1.63237 0.075845 1.72883 0.0521491 1.82288 0.0189659L2.00134 0Z" fill="#EA516D"/>
</g>
<defs>
<clipPath id="clip0_2949_3771">
<rect width="9" height="10" fill="white"/>
</clipPath>
</defs>
</svg>
