<svg width="21.504639" height="22.000000" viewBox="0 0 21.5046 22" fill="none" xmlns="http://www.w3.org/2000/svg" xmlns:xlink="http://www.w3.org/1999/xlink">
	<desc>
			Created with Pixso.
	</desc>
	<defs/>
	<path id="Icon" d="M6 21L6 10M3 21C1.89 21 1 20.1 1 19L1 12C1 10.89 1.89 10 3 10L5.35 10C5.74 10 6.1 9.76 6.26 9.4L9.78 1.48C9.91 1.19 10.2 1 10.53 1C11.89 1 13 2.1 13 3.46L13 7C13 7.55 13.44 8 14 8L17.5 8C19.34 8 20.74 9.63 20.46 11.45L19.39 18.45C19.16 19.91 17.9 21 16.42 21L3 21Z" stroke="#00ABDF" stroke-opacity="1.000000" stroke-width="2.000000" stroke-linejoin="round" stroke-linecap="round"/>
</svg>
