<svg width="22" height="30" viewBox="0 0 22 30" fill="none" xmlns="http://www.w3.org/2000/svg">
<g clip-path="url(#clip0_2949_2999)">
<path d="M18.1182 27.0936H13.6431V25.1658C15.728 24.8779 17.6646 23.9358 19.1737 22.418C20.9968 20.5861 22 18.1523 22 15.5615C22 12.3688 20.456 9.47271 17.9088 7.68445L20.0198 4.95407C20.2292 4.67493 20.3251 4.33472 20.2815 3.98579C20.2379 3.64559 20.0547 3.33155 19.7843 3.11347L19.1911 2.65114L19.383 2.31966C19.6535 1.85732 19.54 1.26414 19.1213 0.941385L18.3711 0.356928C17.9699 0.0428912 17.3941 0.069061 17.0103 0.409267L16.6788 0.705857L16.1205 0.269695C15.5535 -0.17519 14.7248 -0.0705109 14.2887 0.505223L6.64711 10.3799C6.43775 10.6591 6.34179 10.9993 6.38541 11.3482C6.42902 11.6884 6.61221 12.0024 6.88263 12.2205L7.42347 12.6392L7.17922 13.0492C6.9088 13.5116 7.0222 14.1047 7.44092 14.4275L8.19112 15.012C8.38303 15.1603 8.60983 15.23 8.83664 15.23C9.08961 15.23 9.35131 15.1341 9.55194 14.9596L9.94449 14.602L10.5377 15.0556C10.7732 15.2388 11.0611 15.326 11.3402 15.326C11.7328 15.326 12.1166 15.1515 12.3783 14.8201L16.3037 9.75185C18.2141 11.0516 19.3743 13.2063 19.3743 15.5703C19.3743 19.4695 16.2165 22.6448 12.3172 22.6535H12.2998C9.30769 22.6535 6.67328 20.7606 5.6701 18.0302H6.96114C7.63283 18.0302 8.18239 17.4806 8.18239 16.809C8.18239 16.1373 7.63283 15.5877 6.96114 15.5877H1.22125C0.549564 15.5877 0 16.1373 0 16.809C0 17.4806 0.549564 18.0302 1.22125 18.0302H2.94845C3.9429 21.8423 7.1705 24.6599 11.0262 25.1745V27.0936H6.54243C5.87074 27.0936 5.32117 27.6432 5.32117 28.3149C5.32117 28.9866 5.87074 29.5362 6.54243 29.5362H18.1182C18.7899 29.5362 19.3394 28.9866 19.3394 28.3149C19.3394 27.6432 18.7899 27.0936 18.1182 27.0936ZM11.1134 12.1769L9.51705 10.9382L15.5535 3.13964L17.1499 4.37834L11.1134 12.1769Z" fill="white"/>
</g>
<defs>
<clipPath id="clip0_2949_2999">
<rect width="22" height="29.5282" fill="white"/>
</clipPath>
</defs>
</svg>
