<svg width="12.191406" height="11.692871" viewBox="0 0 12.1914 11.6929" fill="none" xmlns="http://www.w3.org/2000/svg" xmlns:xlink="http://www.w3.org/1999/xlink">
	<desc>
			Created with Pixso.
	</desc>
	<defs/>
	<path id="Star 1" d="M5.21 0.53L4.03 2.76C3.88 3.04 3.62 3.23 3.31 3.28L0.83 3.71C0.03 3.85 -0.28 4.82 0.28 5.39L2.04 7.2C2.25 7.43 2.36 7.74 2.31 8.04L1.95 10.54C1.84 11.34 2.66 11.94 3.38 11.58L5.65 10.47C5.93 10.33 6.25 10.33 6.53 10.47L8.8 11.58C9.52 11.94 10.34 11.34 10.23 10.54L9.87 8.04C9.83 7.74 9.93 7.43 10.14 7.2L11.9 5.39C12.46 4.82 12.15 3.85 11.36 3.71L8.87 3.28C8.56 3.23 8.3 3.04 8.15 2.76L6.97 0.53C6.6 -0.18 5.58 -0.18 5.21 0.53Z" fill="#FF9000" fill-opacity="1.000000" fill-rule="evenodd"/>
</svg>
