<svg width="28.000000" height="28.000000" viewBox="0 0 28 28" fill="none" xmlns="http://www.w3.org/2000/svg" xmlns:xlink="http://www.w3.org/1999/xlink">
	<desc>
			Created with Pixso.
	</desc>
	<defs/>
	<path id="Vector" d="M14 0C6.26 0 0 6.26 0 14C0 21.73 6.26 28 14 28C21.73 28 28 21.73 28 14C28 6.26 21.73 0 14 0ZM20.9 9.78C20.85 9.99 20.08 13.65 18.57 20.75C18.46 21.22 18.3 21.51 18.1 21.61C17.9 21.72 17.7 21.77 17.51 21.77C17.37 21.74 17.25 21.68 17.14 21.61C17.04 21.54 15.94 20.76 13.84 19.28L12.55 18.34L11.84 17.86L11.66 17.63C11.57 17.49 11.53 17.36 11.54 17.21C11.54 17.07 11.6 16.95 11.69 16.84L12.43 16.13L13.01 15.58L13.88 14.71L14.92 13.74L15.89 12.82L16.62 12.11C16.77 11.93 16.86 11.8 16.9 11.74C17 11.57 16.97 11.46 16.9 11.42C16.84 11.39 16.76 11.34 16.55 11.42C16.45 11.45 16.27 11.56 15.99 11.74L13.85 13.09L11.15 14.81L9.4 15.95C9.14 16.07 8.89 16.13 8.64 16.13C8.38 16.13 7.24 15.75 5.18 14.98C5 14.9 4.88 14.79 4.83 14.66C4.75 14.45 4.74 14.3 4.78 14.16C4.82 14.02 4.95 13.85 5.18 13.74C5.33 13.68 6.56 13.21 8.86 12.36L13.88 10.43L18.1 8.84L19.7 8.25C19.86 8.2 19.97 8.17 20.05 8.17C20.28 8.17 20.56 8.27 20.66 8.35C20.75 8.44 20.95 8.65 21 8.91C21.04 9.23 20.93 9.61 20.9 9.78Z" fill="#00AADF" fill-opacity="1.000000" fill-rule="nonzero"/>
</svg>
