<svg width="22.000000" height="22.000000" viewBox="0 0 22 22" fill="none" xmlns="http://www.w3.org/2000/svg" xmlns:xlink="http://www.w3.org/1999/xlink">
	<desc>
			Created with Pixso.
	</desc>
	<defs/>
	<path id="Icon" d="M11 21C5.47 21 1 16.52 1 11C1 5.47 5.47 1 11 1C16.52 1 21 5.47 21 11C21 16.52 16.52 21 11 21ZM7.07 7.65C5.82 8.72 5.64 10.51 6.63 11.78C7.26 12.59 8.87 14.09 9.95 15.07C10.31 15.39 10.49 15.55 10.7 15.62C10.89 15.67 11.1 15.67 11.28 15.62C11.5 15.55 11.68 15.39 12.03 15.07C13.11 14.09 14.73 12.59 15.36 11.78C16.34 10.51 16.18 8.71 14.91 7.65C13.64 6.59 11.99 6.89 10.99 8.06C9.99 6.89 8.32 6.58 7.07 7.65Z" stroke="#00ABDF" stroke-opacity="1.000000" stroke-width="2.000000" stroke-linejoin="round"/>
</svg>
