<svg width="28" height="28" viewBox="0 0 28 28" fill="none" xmlns="http://www.w3.org/2000/svg">
<g clip-path="url(#clip0_2949_3031)">
<path d="M6.06851 0H21.9315C25.2807 0 28 2.71927 28 6.06851V21.9315C28 25.2807 25.2807 28 21.9315 28H6.06851C2.71927 28 0 25.2807 0 21.9315V6.06851C0 2.71927 2.71927 0 6.06851 0Z" fill="url(#paint0_linear_2949_3031)"/>
<path d="M13.9983 4.16992C8.57076 4.16992 4.16992 8.57043 4.16992 13.9989C4.16992 15.8563 4.68554 17.5924 5.58076 19.0744L4.35666 23.797L9.24791 22.6055C10.6562 23.3841 12.2757 23.828 13.9983 23.828C19.4278 23.828 23.8283 19.4271 23.8283 13.9989C23.8283 8.57076 19.4278 4.16992 13.9983 4.16992ZM13.9983 22.1813C12.3374 22.1813 10.7893 21.6828 9.49732 20.828L6.62782 21.5594L7.37476 18.7959C6.39522 17.4471 5.81692 15.7897 5.81692 13.9986C5.81692 9.48633 9.4873 5.81595 13.9983 5.81595C18.5093 5.81595 22.181 9.48633 22.181 13.9986C22.181 18.5109 18.5106 22.181 13.9983 22.181V22.1813Z" fill="white"/>
<path d="M17.6931 16.454C17.5558 16.3865 17.4101 16.3309 17.2942 16.2699C16.962 16.0944 16.6299 15.919 16.2978 15.7436C16.1964 15.69 16.0891 15.635 15.9744 15.638C15.5357 15.6493 15.3312 16.2741 15.0446 16.5157C14.9274 16.6146 14.7913 16.7057 14.6379 16.7131C14.5119 16.7193 14.3911 16.6682 14.277 16.6143C13.7023 16.3432 13.1721 15.9781 12.7118 15.5401C12.3502 15.1963 12.0327 14.8086 11.7354 14.408C11.5991 14.2242 11.4624 14.0262 11.4376 13.7987C11.3765 13.2398 12.1709 13.044 12.1923 12.4819C12.2 12.2764 12.105 12.0829 12.0191 11.8962C11.8721 11.576 11.7464 11.2458 11.6434 10.9092C11.454 10.2905 11.0925 10.0243 10.4238 10.1733C9.59479 10.3584 9.15833 11.5201 9.13054 12.2606C9.08887 13.3694 9.85648 14.4717 9.96341 14.6258C10.4745 15.3611 10.9572 16.0806 11.6017 16.7144C12.6497 17.745 14.098 18.5808 15.5593 18.825C15.8416 18.8722 16.1305 18.8945 16.4141 18.856C16.9 18.7898 17.3542 18.5333 17.6734 18.1624C17.9668 17.8216 18.348 17.1838 18.0653 16.7425C17.9849 16.6168 17.844 16.5287 17.6931 16.4547V16.454Z" fill="white"/>
</g>
<defs>
<linearGradient id="paint0_linear_2949_3031" x1="13.9998" y1="-0.0510448" x2="13.9998" y2="27.8178" gradientUnits="userSpaceOnUse">
<stop stop-color="#2AD846"/>
<stop offset="1" stop-color="#00AB24"/>
</linearGradient>
<clipPath id="clip0_2949_3031">
<rect width="28" height="28" fill="white"/>
</clipPath>
</defs>
</svg>
