<svg width="22.000000" height="22.000000" viewBox="0 0 22 22" fill="none" xmlns="http://www.w3.org/2000/svg" xmlns:xlink="http://www.w3.org/1999/xlink">
	<desc>
			Created with Pixso.
	</desc>
	<defs/>
	<path id="Icon" d="M18 5.09L19.74 5.82C20.24 6.02 20.63 6.42 20.84 6.92C21.05 7.41 21.05 7.97 20.84 8.47L20.12 10.22C19.91 10.72 19.91 11.28 20.12 11.77L20.84 13.52C20.94 13.76 20.99 14.03 20.99 14.29C20.99 14.56 20.94 14.83 20.84 15.07C20.74 15.32 20.59 15.54 20.4 15.73C20.21 15.92 19.99 16.07 19.74 16.17L18 16.9C17.5 17.1 17.1 17.5 16.89 18L16.17 19.74C15.97 20.24 15.57 20.63 15.07 20.84C14.57 21.05 14.01 21.05 13.52 20.84L11.77 20.12C11.27 19.91 10.71 19.91 10.22 20.12L8.47 20.84C7.97 21.05 7.42 21.05 6.92 20.84C6.42 20.63 6.02 20.24 5.82 19.74L5.09 18C4.89 17.5 4.49 17.1 4 16.89L2.25 16.17C1.75 15.97 1.36 15.57 1.15 15.07C0.94 14.58 0.94 14.02 1.15 13.52L1.87 11.77C2.08 11.28 2.08 10.72 1.87 10.22L1.15 8.47C1.05 8.22 1 7.96 1 7.69C1 7.43 1.05 7.16 1.15 6.92C1.25 6.67 1.4 6.44 1.59 6.26C1.78 6.07 2 5.92 2.25 5.82L3.99 5.09C4.49 4.89 4.89 4.49 5.09 4L5.82 2.25C6.02 1.75 6.42 1.36 6.92 1.15C7.42 0.94 7.97 0.94 8.47 1.15L10.22 1.87C10.71 2.08 11.27 2.08 11.77 1.87L13.52 1.15C14.02 0.94 14.58 0.94 15.07 1.15C15.57 1.36 15.97 1.75 16.17 2.25L16.9 4L16.9 3.99C17.1 4.49 17.5 4.89 18 5.09ZM8 11L10 13L14.5 8.5" stroke="#00ABDF" stroke-opacity="1.000000" stroke-width="2.000000" stroke-linejoin="round" stroke-linecap="round"/>
</svg>
